<?xml version="1.0" standalone="no"?>
<!DOCTYPE svg PUBLIC "-//W3C//DTD SVG 20010904//EN"
 "http://www.w3.org/TR/2001/REC-SVG-20010904/DTD/svg10.dtd">
<svg version="1.0" xmlns="http://www.w3.org/2000/svg"
 width="1024.000000pt" height="1024.000000pt" viewBox="0 0 1024.000000 1024.000000"
 preserveAspectRatio="xMidYMid meet">

<g transform="translate(0.000000,1024.000000) scale(0.100000,-0.100000)"
fill="#000000" stroke="none">
<path d="M0 5120 l0 -5120 5120 0 5120 0 0 5120 0 5120 -5120 0 -5120 0 0
-5120z m9880 5019 c0 -5 -7 -9 -15 -9 -15 0 -20 12 -9 23 8 8 24 -1 24 -14z
m-8595 -409 c3 -11 13 -20 21 -20 8 0 14 -4 14 -10 0 -5 -7 -10 -15 -10 -9 0
-19 -10 -24 -22 l-8 -22 -12 22 c-6 12 -18 22 -26 22 -22 0 -18 17 5 23 11 3
20 12 20 21 0 23 17 20 25 -4z m6555 -12 c0 -6 6 -16 13 -22 11 -9 9 -15 -11
-34 -23 -23 -24 -23 -29 -2 -3 11 -12 20 -19 20 -10 0 -8 6 6 20 11 11 20 25
20 31 0 5 5 7 10 4 6 -3 10 -11 10 -17z m-5796 -55 c-10 -7 -28 -13 -41 -13
-31 0 -31 33 0 55 21 15 23 14 40 -7 18 -21 18 -23 1 -35z m-1296 4 c2 -12 -3
-17 -17 -17 -15 0 -21 6 -21 21 0 25 33 22 38 -4z m8542 -117 c0 -5 -4 -10
-10 -10 -5 0 -10 5 -10 10 0 6 5 10 10 10 6 0 10 -4 10 -10z m493 -174 c46
-12 47 -22 3 -30 -39 -7 -50 -19 -61 -61 l-7 -30 -13 35 c-11 33 -31 49 -80
66 -17 5 -16 8 14 18 39 14 71 49 72 80 0 13 6 4 17 -24 15 -39 23 -46 55 -54z
m-4008 59 c49 -48 18 -135 -47 -135 -70 0 -106 97 -52 139 35 28 69 26 99 -4z
m-1140 -55 c11 -13 15 -25 10 -37 -5 -10 -7 -24 -6 -32 1 -7 -2 -10 -8 -6 -6
3 -11 1 -11 -4 0 -6 -7 -11 -15 -11 -8 0 -15 -5 -15 -11 0 -6 -8 -8 -18 -5
-14 5 -18 1 -18 -16 1 -19 -4 -23 -26 -21 -16 1 -28 -2 -28 -8 0 -5 5 -9 12
-9 11 0 3 -14 -10 -16 -28 -6 -52 -18 -52 -26 0 -5 5 -6 10 -3 6 3 10 2 10 -4
0 -12 -28 -41 -41 -41 -5 0 -9 -8 -9 -17 0 -13 -2 -15 -8 -5 -7 9 -13 8 -27
-8 -14 -15 -21 -17 -32 -9 -16 14 -17 -3 -1 -19 15 -15 3 -16 -23 -2 -21 12
-26 1 -7 -18 8 -8 9 -12 1 -12 -6 0 -13 5 -15 12 -3 7 -9 8 -18 3 -8 -5 -24
-10 -36 -11 -57 -6 -23 104 46 150 22 14 65 56 95 93 31 38 73 78 93 90 48 30
121 31 147 3z m718 -15 c32 -8 92 -32 133 -52 185 -92 314 -248 365 -443 18
-71 21 -103 17 -200 -7 -161 -38 -222 -103 -206 -50 13 -55 27 -48 149 7 133
-4 193 -52 292 -92 190 -263 297 -474 296 -106 0 -181 -18 -258 -63 -192 -109
-289 -313 -261 -550 8 -70 8 -95 -2 -113 -16 -30 -58 -45 -87 -32 -74 33 -96
294 -40 470 110 343 469 544 810 452z m864 -25 c76 -34 83 -100 16 -137 -21
-11 -62 -28 -91 -38 -37 -12 -61 -28 -83 -55 -52 -65 -104 -70 -148 -14 -26
33 -28 92 -5 140 48 101 204 153 311 104z m-2029 -12 c4 -20 -29 -33 -39 -16
-9 15 9 40 25 35 6 -2 12 -11 14 -19z m-2978 -9 c0 -5 -4 -9 -10 -9 -5 0 -10
7 -10 16 0 8 5 12 10 9 6 -3 10 -10 10 -16z m2638 -91 c21 -13 42 -38 54 -65
17 -38 18 -49 7 -81 -12 -40 -31 -68 -22 -33 6 24 -14 28 -48 10 -11 -6 -45
-10 -75 -9 -82 2 -94 4 -94 11 0 4 -9 11 -20 14 -42 13 -18 99 40 149 41 34
107 36 158 4z m2877 12 c11 -5 17 -9 13 -9 -5 -1 -11 -1 -15 -2 -5 0 -11 -8
-14 -17 -9 -23 -84 -60 -139 -68 -46 -7 -55 -10 -66 -17 -7 -4 -14 0 -18 8 -3
8 -12 12 -21 9 -27 -11 -16 14 20 42 63 48 188 76 240 54z m1674 -78 c13 -25
-4 -42 -40 -42 -33 0 -42 19 -21 43 20 22 49 22 61 -1z m794 12 c9 -10 -4 -34
-18 -34 -17 0 -28 17 -20 30 7 11 28 13 38 4z m-3895 -19 c34 -8 84 -26 110
-39 59 -30 139 -99 148 -129 4 -12 14 -28 23 -36 9 -7 5 -6 -9 3 -34 22 -72
38 -77 32 -3 -3 4 -17 15 -33 10 -15 23 -39 26 -53 7 -23 6 -23 -13 5 -11 17
-30 37 -42 45 -12 8 -35 26 -50 38 -37 30 -37 21 1 -26 42 -53 61 -106 67
-187 13 -171 -78 -316 -234 -375 -108 -41 -279 -15 -350 52 -13 12 -26 19 -29
15 -8 -8 30 -62 84 -118 51 -54 42 -73 -16 -37 -20 12 -40 22 -44 21 -4 -2
-27 18 -51 43 l-44 45 5 -33 c3 -18 11 -42 18 -53 25 -36 15 -38 -16 -4 -87
97 -134 271 -113 415 21 143 105 276 219 344 125 75 242 96 372 65z m1784 -69
c8 -20 7 -28 -5 -41 -27 -26 -87 -10 -87 24 0 45 72 59 92 17z m-3785 -52 c22
-22 25 -32 20 -70 -4 -42 -24 -80 -35 -69 -3 2 0 10 6 17 8 10 -1 13 -46 11
-74 -2 -92 9 -92 53 0 76 92 113 147 58z m558 -52 c-2 -2 -28 -5 -60 -7 -44
-3 -56 -1 -52 9 3 8 0 19 -6 26 -10 10 -8 11 7 3 12 -7 30 -6 54 2 33 12 37
11 47 -9 7 -11 11 -22 10 -24z m21 21 c-7 -7 -26 7 -26 19 0 6 6 6 15 -2 9 -7
13 -15 11 -17z m-156 -13 c0 -5 -4 -10 -10 -10 -5 0 -10 5 -10 10 0 6 5 10 10
10 6 0 10 -4 10 -10z m2491 -17 c31 -18 64 -87 57 -119 -2 -12 -13 -20 -31
-22 -15 -2 -27 -6 -27 -10 0 -12 -103 -13 -147 -1 -50 13 -58 31 -41 85 25 73
120 107 189 67z m-2040 -30 c16 -10 29 -20 29 -23 0 -4 8 -15 18 -26 18 -20
26 -54 12 -54 -4 0 -7 -8 -6 -17 0 -11 -6 -17 -16 -17 -10 1 -16 -1 -15 -5 1
-3 -2 -7 -8 -8 -5 -1 -12 -11 -17 -22 -4 -12 -15 -20 -25 -20 -17 1 -17 2 0 6
31 8 18 19 -18 15 -19 -2 -35 -8 -35 -12 0 -5 -9 -6 -21 -3 -29 8 -61 62 -54
93 22 98 84 135 156 93z m3256 -13 c23 -14 34 -29 39 -56 6 -34 4 -40 -26 -66
-20 -19 -38 -27 -48 -23 -10 4 -25 8 -36 11 -26 5 -45 34 -46 71 0 23 8 38 31
57 37 31 45 32 86 6z m-498 -25 c94 -25 162 -65 237 -139 81 -81 117 -147 140
-256 18 -86 14 -190 -12 -267 -22 -65 -96 -184 -140 -222 -124 -109 -283 -151
-442 -117 -87 18 -152 54 -270 147 -117 93 -169 112 -297 112 -84 -1 -114 -6
-187 -31 -48 -16 -86 -26 -83 -22 3 4 -7 10 -21 13 -18 3 -33 -2 -46 -15 -11
-11 -23 -17 -26 -13 -4 4 1 12 11 19 21 16 22 30 1 22 -12 -4 -15 -2 -10 9 6
17 -9 21 -19 5 -3 -5 -11 -10 -17 -10 -6 0 -6 6 2 15 7 9 10 19 6 22 -4 4 -11
1 -16 -7 -11 -17 -11 -16 -16 22 -5 50 89 115 280 192 153 61 218 115 334 271
104 141 200 212 340 250 64 18 185 18 251 0z m-6044 -43 c7 -20 -12 -32 -52
-32 -38 0 -44 21 -12 43 24 17 55 12 64 -11z m2091 -44 c20 -7 34 -19 34 -28
0 -25 -9 -30 -36 -20 -21 8 -24 7 -24 -11 0 -18 -4 -20 -32 -14 -42 10 -192
10 -206 1 -8 -5 -10 -2 -6 8 4 10 1 16 -7 16 -24 0 52 43 100 57 51 14 124 11
177 -9z m808 8 c61 -25 83 -83 49 -125 -14 -17 -38 -25 -113 -35 -113 -16
-177 -45 -236 -108 -103 -109 -137 -245 -98 -393 56 -217 273 -355 488 -310
180 38 302 141 418 354 22 40 62 56 100 40 96 -40 53 -183 -114 -380 -26 -31
-48 -59 -48 -61 0 -3 40 10 90 29 114 42 289 88 450 116 109 19 162 21 425 22
314 0 364 -5 604 -56 188 -41 426 -131 538 -203 72 -47 94 -83 73 -122 -23
-41 -48 -39 -191 19 -337 137 -590 193 -929 204 -396 14 -776 -61 -1177 -231
-74 -31 -108 -23 -119 27 -7 32 5 46 88 110 20 16 21 18 3 13 -11 -2 -47 -16
-80 -30 -93 -38 -215 -53 -317 -37 -46 8 -98 20 -117 27 -18 8 -35 14 -37 14
-2 0 -4 -78 -4 -172 0 -95 -3 -190 -7 -212 -7 -47 -46 -87 -163 -171 -117 -83
-248 -211 -415 -405 -216 -250 -309 -332 -472 -413 -52 -26 -73 -26 -66 2 3
11 -5 24 -21 35 -25 16 -34 40 -18 49 4 2 2 2 -5 1 -6 -2 -18 8 -27 20 -14 22
-13 24 7 34 l22 11 -24 0 c-20 1 -22 3 -11 16 11 13 10 14 -3 10 -8 -4 -18 -2
-22 4 -3 6 -1 11 4 11 19 0 12 20 -6 21 -11 0 -13 3 -5 6 18 7 15 23 -5 23
-12 0 -8 6 12 16 24 13 45 14 105 8 102 -10 135 -7 178 15 42 22 129 110 258
261 136 160 287 306 416 403 l117 88 -6 177 c-5 151 -4 182 10 208 15 29 15
31 -3 44 -24 18 -17 29 15 23 13 -3 22 -9 19 -14 -3 -5 0 -9 5 -9 6 0 11 5 11
10 0 14 -60 39 -76 33 -7 -2 -15 0 -19 6 -3 6 0 11 7 11 7 0 21 7 32 15 17 13
17 15 3 29 -17 18 -47 21 -47 6 0 -5 9 -10 20 -10 25 0 26 -16 3 -22 -11 -3
-30 7 -48 25 -16 16 -25 26 -18 23 7 -4 23 0 37 9 24 16 25 16 5 36 -19 19
-45 18 -33 -2 3 -5 10 -7 15 -4 5 4 9 -1 9 -9 0 -9 -6 -16 -13 -16 -17 0 -63
48 -54 56 4 4 -2 19 -12 33 -46 66 -70 136 -76 221 -18 239 102 440 322 541
99 46 234 61 297 35z m2457 -29 c-10 -9 -11 -8 -5 6 3 10 9 15 12 12 3 -3 0
-11 -7 -18z m-23 -23 c3 -16 1 -16 -7 -4 -8 12 -13 12 -23 2 -14 -14 -58 -16
-58 -2 0 5 12 9 27 8 14 -2 28 3 31 10 6 18 26 9 30 -14z m-2008 -4 c0 -5 -5
-10 -11 -10 -5 0 -7 5 -4 10 3 6 8 10 11 10 2 0 4 -4 4 -10z m-93 -32 c-3 -8
-6 -5 -6 6 -1 11 2 17 5 13 3 -3 4 -12 1 -19z m2031 5 c-10 -2 -26 -2 -35 0
-10 3 -2 5 17 5 19 0 27 -2 18 -5z m49 1 c-3 -3 -12 -4 -19 -1 -8 3 -5 6 6 6
11 1 17 -2 13 -5z m1614 -24 c38 -11 112 -69 131 -103 29 -56 31 -144 2 -133
-9 3 -14 -2 -14 -14 0 -10 -5 -22 -12 -26 -7 -5 -9 -2 -6 7 4 10 -1 15 -12 15
-10 0 -16 -6 -13 -13 3 -8 -3 -13 -15 -13 -12 0 -23 -4 -27 -10 -3 -5 -12 -7
-20 -3 -8 3 -15 0 -15 -6 0 -14 16 -14 41 -1 10 6 19 7 19 3 0 -13 -35 -31
-75 -39 -33 -6 -37 -5 -32 10 8 19 3 20 -15 3 -30 -29 -77 -57 -97 -57 -12 0
-21 -6 -21 -14 0 -8 -8 -14 -19 -13 -21 1 -17 27 5 27 16 0 16 2 8 23 -3 8
-13 13 -22 11 -22 -5 -76 42 -66 58 4 6 3 8 -4 4 -15 -9 -25 46 -17 97 22 138
159 225 296 187z m1309 -40 c20 -20 29 -77 11 -65 -5 3 -12 1 -16 -5 -3 -5
-19 -10 -34 -10 -52 0 -68 44 -29 80 27 25 43 25 68 0z m-3072 -72 c7 -7 12
-25 12 -40 0 -28 -8 -33 -65 -40 -42 -5 -59 31 -33 72 14 23 67 27 86 8z
m-1680 -128 c12 -12 22 -31 22 -44 0 -27 -34 -66 -59 -66 -24 0 -71 47 -71 71
0 24 38 59 65 59 12 0 31 -9 43 -20z m-1799 -15 c32 -16 56 -64 47 -92 -4 -11
-15 -29 -26 -40 -17 -19 -24 -20 -62 -11 -56 12 -78 33 -78 74 0 24 8 39 31
58 35 30 49 32 88 11z m1400 -18 c57 -38 101 -109 101 -162 0 -23 -6 -47 -12
-53 -10 -10 -10 -15 1 -21 9 -6 11 -16 6 -27 -7 -18 -8 -18 -15 1 -8 19 -9 19
-9 -2 -1 -13 4 -23 10 -23 5 0 2 -13 -8 -30 -9 -16 -20 -30 -23 -30 -3 0 -18
-12 -35 -26 -35 -30 -67 -44 -98 -43 -20 1 -20 2 3 9 54 15 70 23 70 32 0 5
-7 5 -17 0 -23 -12 -52 -4 -32 9 23 14 1 22 -33 13 -24 -7 -33 -15 -32 -31 1
-16 -3 -19 -19 -15 -20 5 -20 6 -1 13 15 5 12 7 -16 10 -21 3 -34 9 -32 17 1
6 -3 12 -8 12 -10 0 -14 -14 -11 -37 1 -7 -3 -13 -9 -13 -5 0 -10 5 -10 10 0
6 -9 10 -20 10 -11 0 -20 7 -20 15 0 8 -6 15 -14 15 -8 0 -25 21 -38 48 -47
96 -23 227 55 286 50 39 76 46 153 43 58 -2 78 -7 113 -30z m-1129 -72 c23
-24 23 -25 5 -45 -13 -14 -29 -20 -49 -18 -25 2 -32 8 -34 30 -2 18 4 31 20
42 29 21 30 20 58 -9z m-543 -112 c32 -36 72 -72 90 -80 22 -9 80 -13 187 -13
240 0 322 -26 437 -140 75 -75 111 -131 147 -233 23 -64 26 -91 30 -254 7
-271 3 -284 -100 -340 -27 -15 -49 -31 -50 -37 -1 -6 -4 115 -7 269 l-6 280
-32 67 c-59 125 -150 197 -273 217 -36 6 -124 11 -197 11 -165 0 -219 17 -296
93 -84 82 -110 164 -67 207 38 38 72 27 137 -47z m5937 18 c21 -22 27 -36 24
-62 -4 -44 -34 -59 -116 -59 -56 0 -63 2 -73 24 -7 14 -9 36 -5 51 19 76 116
102 170 46z m-375 9 c-6 -5 -18 -6 -26 -3 -19 8 -16 11 13 11 17 0 22 -3 13
-8z m-169 -4 c0 -2 -7 -7 -16 -10 -8 -3 -12 -2 -9 4 6 10 25 14 25 6z m-2990
-96 c12 -12 20 -33 20 -54 0 -65 -76 -95 -121 -49 -45 46 -13 123 51 123 17 0
39 -9 50 -20z m2807 -22 c38 -43 36 -83 -6 -115 -41 -32 -111 5 -111 57 0 67
75 104 117 58z m355 -58 c25 -26 29 -36 24 -62 -3 -18 -11 -35 -17 -39 -17
-10 -108 -21 -119 -14 -6 3 -10 0 -10 -7 -1 -7 -9 -3 -20 11 -29 34 -26 77 9
112 41 41 91 40 133 -1z m-5851 -11 c35 -37 37 -69 7 -102 -22 -24 -106 -47
-93 -26 4 5 1 9 -4 9 -6 0 -11 -4 -11 -10 0 -14 -32 0 -52 23 -22 25 -23 51
-1 87 34 59 109 68 154 19z m6524 -78 c60 -27 101 -66 129 -123 22 -44 26 -66
26 -137 0 -154 25 -192 147 -230 38 -11 88 -34 111 -51 117 -84 174 -280 115
-394 -18 -36 -33 -48 -51 -41 -7 3 -10 0 -7 -5 3 -6 -3 -10 -14 -10 -12 0 -20
3 -20 8 3 20 -2 23 -18 11 -15 -13 -15 -12 -4 9 12 22 11 23 -8 13 -27 -15
-34 -14 -27 4 6 17 -9 20 -20 4 -4 -8 -9 -7 -15 2 -5 8 -3 17 4 21 9 6 9 8 0
8 -21 0 -15 27 7 33 41 11 54 110 20 164 -42 70 -70 74 -518 78 -424 4 -416 3
-464 58 -43 48 -56 187 -25 258 44 100 114 143 236 145 l85 2 11 39 c36 123
182 188 300 134z m-7845 -64 c0 -8 -3 -17 -7 -20 -9 -9 -34 13 -27 24 8 14 34
11 34 -4z m1558 -67 c42 -40 20 -91 -44 -103 -42 -8 -74 15 -74 53 0 36 34 70
70 70 14 0 36 -9 48 -20z m5345 -23 c179 -82 239 -304 128 -478 -61 -97 -195
-153 -314 -131 -109 20 -208 110 -239 216 -17 60 -15 154 6 213 19 58 91 144
140 170 93 49 187 52 279 10z m2104 -3 c8 -21 -13 -42 -28 -27 -13 13 -5 43
11 43 6 0 13 -7 17 -16z m-7087 -15 c17 -30 8 -62 -22 -78 -23 -13 -30 -13
-52 -1 -57 30 -36 100 30 100 23 0 37 -6 44 -21z m-2100 -109 c18 0 10 -19
-10 -25 -11 -3 -20 -14 -21 -23 0 -13 -3 -12 -11 5 -6 12 -20 24 -32 28 -21 6
-21 6 2 16 13 5 26 19 29 30 6 21 7 21 20 -5 7 -14 18 -26 23 -26z m1408 22
c109 -34 211 -127 241 -219 l14 -41 86 -4 c104 -4 147 -23 213 -92 65 -66 90
-136 90 -244 0 -73 -4 -90 -35 -156 -46 -97 -116 -166 -217 -211 -41 -19 -86
-34 -100 -34 -23 1 -23 2 5 9 17 4 24 8 17 9 -7 0 -10 6 -6 12 5 9 -12 10 -62
6 -44 -3 -57 -3 -34 2 19 5 28 9 20 11 -49 8 -70 8 -70 -1 0 -17 -25 -9 -39
12 -12 20 -18 21 -94 15 -45 -4 -96 -7 -114 -6 -74 2 -32 -37 47 -43 25 -2 8
-4 -37 -5 l-83 -2 0 31 0 32 -60 -6 c-50 -6 -67 -3 -101 15 -29 15 -37 23 -27
29 9 6 4 9 -14 9 -18 0 -28 5 -28 15 0 12 -4 13 -19 5 -26 -13 -29 -13 -33 7
-2 10 -12 18 -23 18 -11 0 -19 6 -17 13 2 10 -4 11 -19 7 -15 -5 -19 -4 -15 4
4 6 5 11 1 11 -6 0 -27 -47 -30 -70 -1 -8 -6 -22 -9 -31 -5 -10 -1 -19 8 -22
11 -5 16 0 16 13 0 11 5 20 11 20 6 0 8 -8 4 -20 -3 -10 -1 -28 4 -38 10 -19
7 -20 -54 -18 -54 1 -65 4 -65 18 0 10 -5 15 -13 12 -7 -2 -24 7 -37 21 -29
31 -40 32 -41 3 -1 -13 -5 4 -10 37 -16 106 18 220 84 285 44 44 80 61 142 67
l53 6 4 151 c4 169 8 184 80 262 51 55 90 80 159 98 74 20 136 19 207 -2z
m496 -38 c19 -7 22 -53 4 -55 -45 -4 -64 12 -49 40 12 22 20 25 45 15z m425
-32 c77 -41 95 -168 31 -219 -30 -24 -33 -12 -5 17 16 16 25 33 22 37 -4 3 -7
2 -7 -4 0 -6 -20 -13 -45 -15 -25 -2 -45 1 -45 5 0 5 -21 7 -47 6 -28 -2 -48
1 -50 8 -2 6 -12 9 -22 6 -27 -7 -44 21 -37 61 18 93 122 143 205 98z m6571
-22 c24 -24 25 -30 6 -30 -8 0 -18 -10 -22 -22 l-7 -23 -8 23 c-5 12 -15 22
-24 22 -22 0 -19 18 5 25 11 3 20 11 20 16 0 14 8 11 30 -11z m-3926 -15 c265
-32 528 -104 796 -219 365 -158 724 -421 970 -711 329 -388 489 -748 570
-1280 30 -198 42 -439 30 -591 -6 -71 -12 -139 -13 -151 -1 -13 -4 -23 -8 -23
-3 0 -5 34 -3 75 3 74 3 76 -23 86 -32 12 -39 6 -18 -14 8 -9 15 -23 15 -31 0
-13 -5 -12 -25 6 -16 14 -23 28 -20 39 3 10 0 21 -6 25 -9 5 -11 -6 -6 -44 4
-33 2 -52 -4 -52 -6 0 -8 3 -6 8 2 4 1 30 -3 57 -7 48 -7 48 -9 11 -2 -57 -23
-166 -32 -166 -5 0 -5 19 -2 43 4 23 7 170 7 327 0 289 -11 411 -48 518 -12
34 -13 28 -19 -88 -6 -138 -26 -213 -72 -281 -63 -89 -176 -156 -309 -180 -73
-13 -80 -17 -65 -35 9 -11 8 -14 -2 -14 -8 0 -25 14 -39 32 -25 32 -26 34 -29
66 -1 11 -4 13 -9 6 -4 -7 -17 2 -33 26 l-27 37 75 16 c84 18 201 71 253 115
77 64 120 193 100 299 -15 82 -56 163 -159 317 -151 223 -243 290 -445 326
-243 43 -341 132 -589 538 -144 236 -187 276 -307 289 l-64 6 21 -34 c37 -62
100 -172 213 -373 122 -218 180 -301 244 -348 36 -27 149 -84 228 -116 l27
-11 -24 -28 c-13 -15 -34 -41 -48 -58 l-25 -29 -43 28 c-24 16 -55 40 -68 53
-26 25 -47 31 -38 11 3 -7 34 -83 68 -168 34 -85 78 -180 98 -210 46 -70 112
-112 187 -118 77 -6 198 30 176 53 -4 4 1 5 11 2 11 -4 17 -1 17 7 0 7 7 19
15 26 8 7 19 27 24 44 5 17 10 23 10 14 1 -10 6 -18 12 -18 6 0 8 10 5 23 -3
12 -3 16 0 9 8 -16 34 3 34 25 0 12 2 12 15 -1 8 -8 16 -21 16 -28 1 -7 5 1
10 17 6 22 7 15 3 -24 -19 -199 -254 -326 -461 -250 -95 36 -107 52 -308 419
-32 58 -80 148 -107 200 -28 52 -67 124 -88 160 -154 265 -430 794 -430 825 0
16 93 59 153 71 56 12 85 13 146 4 165 -24 276 -111 390 -305 102 -175 207
-328 262 -384 68 -69 141 -104 274 -131 315 -63 472 -219 673 -670 22 -50 13
14 -17 116 -61 212 -169 416 -341 645 -180 240 -398 442 -658 607 -112 72
-295 168 -407 215 -177 72 -482 156 -645 176 -122 16 -127 12 -22 -14 67 -17
115 -37 168 -70 41 -26 74 -48 74 -49 0 -2 -27 -24 -60 -50 l-60 -47 -57 47
c-65 53 -171 105 -252 124 -76 18 -207 15 -277 -5 -78 -22 -184 -78 -238 -126
-43 -38 -66 -48 -66 -30 0 5 -23 26 -51 47 l-50 39 23 19 c56 45 200 101 308
119 21 4 21 4 -6 6 -43 2 -258 -35 -374 -64 -223 -56 -485 -160 -658 -261
-381 -223 -629 -457 -879 -833 -101 -152 -178 -312 -237 -493 -49 -150 -41
-161 22 -33 140 285 261 437 413 515 62 32 126 52 243 75 104 21 179 61 242
127 72 76 97 111 220 311 126 207 188 280 273 326 78 41 187 64 266 56 63 -7
182 -57 191 -80 8 -19 -53 -154 -148 -330 -91 -169 -272 -497 -328 -595 -20
-36 -99 -178 -174 -316 -76 -138 -151 -268 -167 -287 -46 -56 -126 -90 -224
-95 -95 -5 -160 12 -224 59 -50 35 -111 117 -103 138 4 10 1 12 -8 6 -10 -6
-12 -4 -7 8 3 10 3 17 -2 17 -5 0 -8 21 -7 48 l1 47 43 3 c34 3 43 0 48 -15
35 -120 121 -193 226 -193 80 0 127 20 188 79 50 49 62 70 100 166 62 158 100
269 94 274 -3 3 -15 -6 -27 -20 -12 -13 -33 -32 -47 -42 -14 -9 -35 -24 -47
-33 -14 -10 -23 -12 -23 -5 0 6 8 11 18 12 11 0 12 2 4 6 -7 3 -19 0 -26 -7
-17 -13 -31 3 -20 22 4 7 3 8 -4 4 -6 -4 -18 6 -27 24 -8 16 -20 30 -25 30
-21 0 -9 18 16 24 14 4 62 24 107 45 98 45 178 115 240 209 45 69 218 370 301
525 l47 87 -34 0 c-54 0 -135 -29 -172 -61 -19 -17 -65 -81 -101 -142 -133
-223 -243 -378 -332 -471 -89 -91 -152 -122 -322 -157 -198 -41 -291 -113
-451 -355 -118 -177 -120 -181 -135 -238 -44 -166 11 -309 152 -392 49 -29
162 -69 222 -79 33 -5 40 -10 33 -19 -6 -7 -24 -12 -39 -11 -25 1 -28 -1 -24
-22 2 -12 9 -20 14 -17 6 4 2 -5 -7 -20 -9 -14 -21 -23 -26 -21 -4 3 -13 -4
-19 -16 -11 -19 -13 -20 -30 -4 -18 16 -17 47 3 73 6 8 6 12 -2 12 -6 0 -11
-4 -11 -10 0 -5 -18 -10 -40 -10 -29 0 -43 -5 -52 -20 -7 -11 -18 -20 -25 -20
-7 0 -13 9 -13 20 0 14 -7 20 -24 20 -13 0 -26 6 -29 13 -2 6 -8 9 -12 5 -4
-4 -2 -14 5 -23 16 -19 11 -19 -29 1 -28 14 -30 18 -19 32 12 15 11 16 -5 3
-16 -12 -21 -11 -49 15 -100 91 -140 191 -142 361 0 51 -4 93 -7 93 -9 0 -30
-78 -45 -170 -22 -130 -29 -421 -15 -610 7 -91 15 -173 17 -182 3 -10 1 -18
-5 -18 -5 0 -13 20 -17 45 -3 25 -10 45 -15 45 -5 0 -9 7 -9 15 0 8 -6 15 -13
15 -15 0 -41 39 -32 48 3 4 10 0 14 -7 6 -9 11 -10 15 -3 4 6 -2 16 -13 21
-27 15 -31 14 -31 -9 0 -11 -5 -20 -12 -20 -6 0 -3 -7 8 -15 18 -14 18 -14 -6
-15 -26 0 -26 -1 -23 -67 3 -65 20 -229 29 -283 2 -14 -3 -5 -11 20 -24 70
-54 287 -66 484 -17 253 4 528 56 751 157 676 525 1200 1118 1592 351 231 796
395 1207 442 126 14 435 12 574 -4z m1523 0 c24 -17 34 -57 18 -72 -6 -6 -22
-11 -36 -12 -13 0 -37 -2 -54 -4 -26 -2 -30 2 -33 27 -2 19 4 36 19 52 26 27
55 31 86 9z m-5937 -89 c8 -9 33 -22 55 -29 l40 -14 -42 -12 c-47 -13 -83 -51
-83 -87 0 -13 -4 -24 -10 -24 -5 0 -10 9 -10 20 0 45 -29 79 -78 93 l-47 14
40 12 c55 15 62 21 81 66 l17 40 11 -32 c6 -18 18 -39 26 -47z m2658 -50 c4
-20 -13 -36 -41 -36 -23 0 -33 26 -16 46 16 20 53 14 57 -10z m3083 -47 c11
-11 19 -25 17 -31 -5 -14 -78 -40 -95 -34 -21 8 -15 53 9 70 30 21 44 20 69
-5z m-1474 -169 c132 -46 194 -117 321 -364 54 -105 172 -326 262 -491 90
-165 253 -464 362 -665 110 -201 207 -372 216 -381 9 -9 51 -28 94 -43 153
-55 241 -131 352 -306 184 -288 410 -658 427 -697 102 -239 -10 -557 -238
-672 -97 -49 -126 -51 -623 -51 -386 0 -476 3 -525 15 -182 48 -297 150 -415
369 -119 219 -212 289 -385 288 -70 -1 -88 -5 -151 -37 -88 -43 -131 -91 -204
-230 -104 -196 -182 -285 -309 -348 -109 -55 -152 -58 -681 -55 -472 3 -475 3
-533 26 -126 51 -234 164 -288 299 -20 50 -23 75 -23 188 0 165 5 180 172 447
70 112 169 273 220 358 156 261 224 328 411 405 59 25 99 48 110 64 10 14 126
222 256 461 131 239 296 541 367 670 71 129 168 314 216 410 74 150 95 184
149 238 119 121 280 158 440 102z m1724 16 c51 -26 269 -217 275 -240 10 -42
0 -78 -28 -99 -36 -27 -57 -17 -151 67 -40 35 -101 88 -137 118 -77 64 -89
100 -46 143 28 28 49 31 87 11z m-4244 -49 c-5 -16 -57 -19 -57 -3 0 6 5 17
12 24 14 14 51 -3 45 -21z m5265 2 c183 -39 332 -199 362 -390 l10 -69 327 0
c180 0 341 -3 359 -6 20 -4 35 -15 40 -29 4 -12 25 -35 46 -52 l38 -30 -29
-19 c-27 -17 -57 -19 -355 -24 -376 -6 -345 1 -510 -124 -179 -136 -247 -161
-416 -154 -86 4 -110 9 -167 36 -78 36 -162 111 -220 196 -22 33 -73 94 -114
137 l-74 77 50 47 c27 25 82 93 122 151 79 115 129 164 209 208 98 53 209 69
322 45z m-5302 -159 c43 -43 14 -110 -46 -110 -43 0 -69 35 -59 80 11 51 68
67 105 30z m6549 -139 c73 -51 34 -171 -55 -171 -28 0 -44 8 -71 35 -31 31
-35 40 -30 72 14 82 88 112 156 64z m-7909 -45 c0 -3 -4 -8 -10 -11 -5 -3 -10
-1 -10 4 0 6 5 11 10 11 6 0 10 -2 10 -4z m2334 -47 c35 -28 49 -64 36 -90 -6
-10 -17 -19 -25 -19 -8 0 -15 -4 -15 -9 0 -29 -86 -14 -122 22 -23 21 -23 46
0 73 38 48 84 56 126 23z m2994 -15 c12 -14 22 -36 22 -50 0 -28 -24 -59 -39
-50 -5 3 -8 -2 -7 -11 0 -10 -7 -19 -17 -21 -24 -5 -106 38 -113 60 -16 52 43
114 101 103 17 -3 40 -16 53 -31z m-5068 -70 c0 -14 -8 -16 -49 -12 -26 3 -72
2 -102 -2 -56 -7 -79 -4 -79 11 0 4 19 7 43 5 23 -2 69 -1 102 4 33 4 66 8 73
9 6 0 12 -6 12 -15z m860 -19 c0 -8 -7 -15 -15 -15 -16 0 -20 12 -8 23 11 12
23 8 23 -8z m-745 -15 c-29 -12 -235 -12 -235 0 0 6 49 10 128 9 80 0 120 -4
107 -9z m-315 -10 c0 -5 -5 -10 -11 -10 -5 0 -7 5 -4 10 3 6 8 10 11 10 2 0 4
-4 4 -10z m678 3 c-16 -2 -40 -2 -55 0 -16 2 -3 4 27 4 30 0 43 -2 28 -4z
m-661 -45 c-3 -8 -6 -5 -6 6 -1 11 2 17 5 13 3 -3 4 -12 1 -19z m2054 -36 c27
-24 30 -33 25 -59 -8 -34 -38 -52 -91 -54 -40 -2 -57 3 -72 21 -22 27 -15 66
18 94 40 34 80 34 120 -2z m3413 2 c34 -34 35 -76 2 -98 -14 -9 -32 -13 -40
-10 -11 4 -16 0 -16 -10 0 -21 -16 -21 -24 0 -4 9 -9 14 -13 11 -3 -4 -14 3
-24 14 -10 12 -23 18 -28 14 -25 -15 -9 48 18 76 39 38 88 40 125 3z m-5914
-4 c22 -12 42 -64 33 -88 -11 -31 -46 -62 -71 -62 -27 0 -82 50 -82 75 0 22
27 72 42 78 22 9 58 7 78 -3z m450 1 c0 -4 -11 -20 -25 -35 -17 -18 -34 -26
-57 -26 l-33 1 30 13 c17 7 36 11 43 8 6 -2 12 2 12 10 0 8 5 19 12 26 14 14
18 15 18 3z m-165 -39 c-3 -3 -11 0 -18 7 -9 10 -8 11 6 5 10 -3 15 -9 12 -12z
m8110 -67 c28 -27 31 -52 11 -81 -12 -15 -17 -17 -27 -6 -15 14 -43 17 -35 3
3 -4 -7 -7 -22 -5 -14 1 -33 -3 -41 -9 -11 -9 -15 -9 -18 1 -5 14 -33 16 -33
2 0 -5 -5 -10 -11 -10 -5 0 -7 6 -3 12 5 7 9 21 9 30 3 38 71 87 123 88 13 0
34 -11 47 -25z m-654 -24 c16 -16 29 -35 29 -43 -1 -17 -31 -52 -52 -61 -24
-8 -50 2 -41 17 4 7 1 6 -9 -2 -12 -10 -18 -9 -28 3 -7 8 -16 13 -20 10 -14
-9 -22 33 -10 54 14 28 50 51 78 51 13 0 37 -13 53 -29z m-7551 -20 c0 -20
-13 -41 -25 -41 -18 0 -28 17 -21 35 6 16 46 21 46 6z m680 -107 c18 -18 24
-39 21 -76 -2 -32 -37 -56 -92 -63 -108 -15 -174 -42 -234 -97 -51 -47 -87
-97 -260 -363 -117 -179 -248 -276 -385 -283 -48 -3 -76 0 -96 12 -23 12 -25
15 -10 16 20 0 20 0 1 14 -19 14 -19 15 -1 35 10 11 27 23 36 26 10 3 20 15
23 25 3 12 14 20 27 20 56 0 164 82 239 180 31 41 94 136 141 210 108 172 189
258 284 305 134 66 264 82 306 39z m6631 -70 c113 -33 239 -144 239 -211 0
-43 -37 -83 -79 -83 -21 0 -46 15 -95 60 -50 45 -79 63 -122 76 -142 41 -294
-35 -371 -186 -25 -49 -28 -67 -31 -177 -2 -68 -1 -123 2 -123 4 0 19 9 34 20
77 57 233 82 345 56 101 -24 162 -60 251 -147 71 -71 83 -79 118 -79 57 0 102
48 183 191 123 218 203 302 326 340 73 23 89 24 89 5 0 -8 18 -22 40 -32 34
-15 39 -21 37 -47 -3 -34 1 -31 -119 -87 -105 -48 -128 -74 -228 -255 -85
-155 -127 -208 -183 -235 -23 -10 -38 -19 -32 -20 26 -1 -41 -33 -76 -36 -22
-2 -45 -6 -50 -9 -5 -4 -9 -1 -9 4 0 6 -3 10 -7 10 -28 -5 -53 2 -47 13 4 6 3
8 -4 4 -18 -11 -74 30 -136 100 -71 79 -137 114 -230 121 -117 10 -217 -35
-273 -122 -17 -28 -38 -58 -47 -67 -22 -24 -78 -23 -100 1 -25 27 -37 132 -39
331 -2 145 1 185 16 235 53 172 159 286 315 341 81 29 201 32 283 8z m-7463
-10 c97 -40 162 -155 127 -223 -13 -26 -46 -46 -70 -41 -5 1 -37 -4 -72 -11
-48 -10 -71 -10 -100 -1 -24 7 -41 8 -47 2 -7 -7 -20 0 -38 17 -22 21 -31 25
-37 14 -11 -17 -21 8 -21 51 0 142 136 243 258 192z m8526 -85 c40 -47 30
-101 -25 -133 -54 -32 -121 4 -135 70 -4 24 0 37 21 62 22 27 34 32 70 32 36
0 48 -5 69 -31z m-574 6 c34 -17 50 -43 50 -78 0 -31 -50 -57 -109 -57 -32 0
-44 5 -57 25 -21 32 -5 84 34 107 34 22 45 22 82 3z m-6535 -160 c31 -15 55
-50 55 -81 0 -8 -11 -26 -25 -39 l-24 -25 -293 0 c-264 0 -297 -2 -334 -19
-67 -30 -83 -109 -25 -124 22 -5 35 6 45 41 4 12 12 22 17 22 5 0 9 8 10 18 0
10 3 12 6 5 2 -7 13 -13 23 -13 29 0 32 -14 16 -80 -15 -69 -43 -111 -32 -50
l6 35 -13 -30 c-8 -16 -12 -37 -10 -45 3 -8 -1 -6 -8 5 -12 19 -12 19 -19 0
-4 -11 -15 -20 -26 -21 -55 -2 -65 -5 -59 -14 3 -5 -1 -10 -10 -10 -9 0 -14
-4 -11 -9 3 -4 -6 -6 -19 -3 -14 2 -22 8 -19 13 3 5 -1 6 -9 3 -21 -8 -85 69
-93 111 -25 134 61 265 201 308 74 23 602 24 650 2z m1194 -90 c31 -15 61 -69
61 -108 0 -36 -40 -89 -83 -110 -46 -23 -94 -11 -132 34 -42 51 -29 144 27
183 28 20 90 21 127 1z m3103 4 c65 -30 87 -142 39 -193 -33 -35 -80 -50 -117
-36 -97 37 -121 147 -48 215 29 27 85 33 126 14z m1498 -4 c0 -8 -4 -15 -9
-15 -13 0 -22 16 -14 24 11 11 23 6 23 -9z m550 -113 c25 -31 25 -37 -2 -61
-17 -17 -24 -18 -37 -8 -12 10 -14 9 -8 -5 3 -10 2 -20 -4 -23 -5 -4 -8 -1 -7
6 2 6 -3 14 -11 17 -8 3 -11 0 -7 -7 4 -6 2 -11 -3 -11 -6 0 -11 5 -11 10 0 6
-5 10 -11 10 -6 0 -8 -8 -5 -17 4 -12 -1 -10 -15 6 -14 18 -18 32 -14 50 18
70 92 88 135 33z m-7980 -39 c58 -34 65 -90 16 -139 -43 -43 -83 -45 -126 -6
-48 42 -44 113 7 144 35 22 67 22 103 1z m640 -43 c28 -28 12 -57 -36 -66 -53
-10 -73 27 -34 66 25 25 45 25 70 0z m8078 -30 c49 -22 76 -49 98 -97 16 -37
19 -89 4 -98 -5 -3 -7 -12 -4 -20 3 -7 1 -22 -6 -32 -10 -16 -10 -16 -5 3 3
13 -1 26 -11 35 -15 12 -16 11 -10 -9 9 -28 -9 -29 -26 -2 -17 26 -31 26 -23
-1 6 -18 4 -19 -13 -10 -22 12 -122 3 -122 -10 0 -5 -7 -9 -15 -9 -8 0 -15 -4
-15 -10 0 -14 -20 -13 -53 3 -66 30 -57 157 16 225 27 25 89 51 122 51 11 0
39 -8 63 -19z m-7450 -6 c42 -29 27 -48 -48 -56 -32 -4 -38 24 -11 51 25 25
30 26 59 5z m223 -10 c11 -14 10 -18 -6 -30 -28 -20 -65 -18 -65 4 0 39 46 56
71 26z m933 -53 c3 -5 -13 -11 -37 -15 -23 -3 -60 -9 -82 -12 -46 -7 -61 -17
-87 -59 -10 -16 -18 -25 -18 -20 0 22 42 76 72 95 34 21 141 29 152 11z m3983
-37 c56 -60 56 -74 -1 -18 -44 44 -55 48 -148 47 -10 0 -18 4 -18 9 0 4 28 8
62 8 60 0 62 -1 105 -46z m-4210 -136 c-3 -7 -5 -2 -5 12 0 14 2 19 5 13 2 -7
2 -19 0 -25z m-1538 11 c214 -36 393 -226 420 -443 l6 -51 135 -5 c145 -6 170
-13 224 -67 94 -93 86 -280 -14 -338 -34 -19 -53 -20 -732 -23 -797 -3 -724 8
-693 -100 28 -95 100 -176 190 -213 21 -9 135 -15 395 -19 357 -5 366 -6 412
-28 105 -52 155 -158 124 -263 -26 -90 -105 -175 -280 -304 -26 -19 -27 -24
-31 -132 -4 -132 -22 -201 -70 -274 -102 -155 -266 -230 -420 -194 -36 8 -82
23 -103 34 -89 45 -168 158 -179 254 -3 28 -1 38 5 29 7 -10 11 -5 16 20 5 24
9 29 15 19 5 -7 13 -11 19 -7 6 3 18 -1 26 -10 12 -12 16 -12 17 -2 0 7 11 -9
25 -37 49 -98 117 -144 215 -145 110 0 205 56 251 148 20 41 24 66 28 201 5
152 6 153 33 177 16 13 37 24 49 24 27 0 150 101 200 163 48 62 53 114 12 146
-26 20 -39 21 -308 21 -362 1 -443 8 -525 50 -79 39 -176 136 -219 217 -62
117 -90 303 -62 404 22 79 86 141 157 152 l38 6 -3 96 c-5 150 41 260 149 358
132 120 297 166 478 136z m707 -15 c60 -29 92 -93 80 -160 -6 -29 -10 -33 -22
-24 -11 10 -14 9 -15 -6 -1 -17 -2 -17 -6 -1 -5 20 -19 23 -25 5 -5 -15 -166
-12 -184 3 -6 5 -14 6 -17 3 -13 -13 -29 45 -23 79 17 93 123 143 212 101z
m897 -19 c-9 -15 -11 -15 -24 1 -8 10 -9 15 -2 11 6 -4 15 -2 18 4 11 17 18 2
8 -16z m4094 -7 c-3 -8 -6 -5 -6 6 -1 11 2 17 5 13 3 -3 4 -12 1 -19z m-4164
-8 c-3 -12 -8 -19 -11 -16 -5 6 5 36 12 36 2 0 2 -9 -1 -20z m20 -31 c-6 -6
-7 3 -4 23 4 28 6 29 9 9 2 -13 0 -27 -5 -32z m47 -28 c-1 -13 -30 34 -30 48
0 9 7 3 15 -13 8 -15 15 -31 15 -35z m6515 39 c-10 -11 -25 -20 -34 -19 -13 0
-14 2 -1 6 8 4 21 12 28 20 21 21 27 15 7 -7z m-6481 -40 c-7 -6 -24 22 -23
40 0 9 6 5 14 -10 7 -14 11 -27 9 -30z m4032 20 c0 -12 -4 -16 -9 -11 -5 5 -6
14 -3 20 10 15 12 14 12 -9z m-4076 -44 c0 -6 -7 -1 -15 10 -8 10 -15 23 -15
28 0 6 7 1 15 -10 8 -10 15 -23 15 -28z m4044 21 c-2 -7 -30 -26 -62 -42 -73
-37 -208 -48 -260 -21 -42 21 -41 30 2 22 104 -20 265 2 306 40 18 17 21 18
14 1z m-4063 -29 c17 -24 18 -29 6 -19 -18 14 -42 51 -33 51 3 0 15 -15 27
-32z m265 -18 c31 -5 87 -5 132 0 42 4 79 7 80 5 2 -2 -10 -11 -27 -19 -66
-35 -236 -14 -292 35 l-34 30 43 -21 c24 -12 68 -25 98 -30z m-2541 5 c0 -14
-8 -21 -27 -23 -24 -3 -28 0 -28 23 0 23 4 26 28 23 19 -2 27 -9 27 -23z
m7706 -4 c16 -16 29 -39 29 -51 0 -30 -53 -80 -85 -80 -36 0 -75 41 -75 80 0
37 41 80 77 80 14 0 37 -13 54 -29z m-263 2 c2 -8 -5 -13 -17 -13 -12 0 -21 6
-21 16 0 18 31 15 38 -3z m998 -14 c31 -15 48 -32 63 -63 22 -45 28 -81 11
-71 -5 3 -10 1 -10 -5 0 -18 -28 -42 -35 -30 -3 5 -14 10 -23 10 -12 0 -13 -3
-5 -8 7 -4 -22 -7 -65 -7 -42 1 -85 -3 -96 -8 -13 -6 -16 -6 -12 2 4 6 3 11
-3 11 -21 0 -22 59 -2 105 16 36 29 50 63 65 54 25 62 25 114 -1z m-7109 -55
c-3 -3 -12 -4 -19 -1 -8 3 -5 6 6 6 11 1 17 -2 13 -5z m5953 -43 c0 -23 -46
-35 -55 -14 -8 22 3 33 31 33 17 0 24 -6 24 -19z m744 -73 c15 -21 23 -68 9
-55 -3 4 -11 2 -18 -3 -20 -16 -94 -18 -100 -2 -8 22 -6 28 16 56 26 33 71 35
93 4z m296 -18 c0 -5 -9 -14 -19 -19 -16 -9 -18 -8 -14 9 5 20 33 29 33 10z
m47 -26 c-3 -3 -12 -4 -19 -1 -8 3 -5 6 6 6 11 1 17 -2 13 -5z m-806 -38 c95
-64 108 -232 22 -306 -39 -34 -110 -51 -164 -39 -118 26 -181 128 -145 236 41
125 182 178 287 109z m764 24 c3 -5 2 -10 -4 -10 -5 0 -13 5 -16 10 -3 6 -2
10 4 10 5 0 13 -4 16 -10z m523 -65 c34 -29 45 -67 28 -104 -9 -21 -19 -27
-51 -30 -22 -1 -42 -3 -45 -3 -3 -1 -24 2 -47 7 -31 5 -43 13 -47 30 -14 56
44 125 106 125 14 0 40 -11 56 -25z m-6533 -55 c3 -5 2 -10 -4 -10 -5 0 -13 5
-16 10 -3 6 -2 10 4 10 5 0 13 -4 16 -10z m35 6 c0 -3 -4 -8 -10 -11 -5 -3
-10 -1 -10 4 0 6 5 11 10 11 6 0 10 -2 10 -4z m5955 -71 c88 -23 172 -73 245
-145 129 -128 186 -306 146 -458 -13 -52 -13 -52 10 -58 13 -3 39 -23 58 -44
34 -38 49 -76 61 -155 4 -32 3 -35 -4 -17 -15 32 -24 27 -16 -8 4 -19 3 -30
-4 -30 -6 0 -11 14 -11 30 0 19 -5 30 -14 30 -21 0 -29 -17 -11 -24 8 -3 15
-10 15 -16 0 -7 -6 -6 -14 3 -13 12 -31 14 -98 8 -3 -1 -15 -16 -25 -33 -18
-31 -23 -33 -70 -32 -28 1 -56 5 -62 8 -6 4 -11 0 -11 -8 0 -9 -4 -16 -10 -16
-5 0 -10 7 -10 15 0 26 -25 16 -26 -10 -2 -19 3 -25 20 -25 20 -1 20 -1 2 -11
-12 -7 -21 -8 -25 -2 -11 18 -49 33 -80 33 -18 0 -35 8 -44 20 -11 15 -19 18
-43 11 -27 -7 -28 -8 -9 -19 17 -10 13 -11 -27 -12 -36 0 -48 4 -48 15 0 21
-17 19 -24 -2 -3 -10 -4 -6 -2 10 3 29 -8 37 -18 12 -3 -8 -12 -15 -20 -15 -8
0 -17 -6 -20 -12 -3 -7 -4 -4 -3 7 2 11 9 19 15 18 7 -2 12 4 12 14 0 15 -2
15 -19 -1 -11 -10 -24 -15 -30 -12 -5 4 -12 2 -16 -4 -4 -6 -11 -8 -16 -5 -5
4 -9 2 -9 -3 0 -6 -10 -8 -22 -6 -13 2 -16 1 -8 -2 8 -4 18 -12 22 -18 5 -7 8
-7 8 2 0 7 5 10 11 6 6 -3 15 0 20 7 5 8 9 9 9 3 0 -6 -9 -23 -20 -37 l-20
-26 42 -5 c24 -3 79 -9 123 -14 68 -8 46 -9 -143 -11 -172 -1 -226 2 -236 12
-24 23 5 46 67 53 32 4 57 11 57 16 0 5 -10 6 -21 3 -15 -5 -19 -4 -15 4 8 12
-6 15 -18 4 -3 -4 -14 -8 -24 -9 -9 -2 -30 -5 -45 -8 -17 -3 -26 -2 -22 4 7
11 -23 19 -81 23 -23 1 -48 8 -56 14 -7 7 -26 10 -41 9 -15 -2 -27 0 -27 3 0
4 -9 17 -21 29 -11 12 -17 27 -14 32 4 6 3 10 -2 8 -4 -1 -31 21 -60 50 -66
65 -119 82 -258 82 -91 0 -104 2 -121 21 -45 50 4 204 87 270 79 63 119 73
297 79 l164 5 18 52 c48 136 172 247 323 288 70 18 209 19 282 0z m-6227 -47
c3 -23 -2 -30 -24 -38 -36 -14 -54 -6 -54 23 0 31 19 48 50 45 19 -2 26 -10
28 -30z m4645 11 c16 -26 1 -49 -32 -49 -21 0 -32 6 -36 20 -14 43 44 67 68
29z m-4383 -76 c0 -3 -12 -22 -27 -42 -16 -20 -32 -44 -38 -55 -12 -24 -46
-31 -38 -8 5 11 3 13 -7 7 -8 -5 -11 -3 -8 5 7 21 28 24 28 4 0 -13 3 -15 11
-7 9 9 8 15 -3 27 -13 13 -19 12 -49 -6 -109 -67 -186 -195 -229 -383 -14 -61
-19 -71 -19 -44 -1 56 44 222 79 287 38 72 117 151 190 191 50 28 110 41 110
24z m4160 -20 c103 -52 214 -188 235 -288 4 -20 -5 -10 -25 30 -36 68 -59 97
-71 89 -5 -3 -6 1 -3 9 8 21 -39 54 -74 52 -17 -1 -29 3 -29 11 0 10 5 10 21
2 l21 -11 -20 20 c-20 20 -35 21 -35 2 0 -6 -7 -17 -15 -25 -12 -13 -15 -12
-25 5 -14 28 -12 36 6 20 13 -10 17 -10 25 2 14 22 11 32 -8 25 -9 -4 -19 -2
-23 4 -4 6 -14 12 -23 14 -18 2 -67 45 -67 58 0 17 57 7 110 -19z m418 -128
c-3 -3 -9 2 -12 12 -6 14 -5 15 5 6 7 -7 10 -15 7 -18z m-5151 -17 c-3 -8 -6
-5 -6 6 -1 11 2 17 5 13 3 -3 4 -12 1 -19z m4761 -33 c-3 -3 -9 2 -12 12 -6
14 -5 15 5 6 7 -7 10 -15 7 -18z m35 -30 c-3 -9 -8 -14 -10 -11 -3 3 -2 9 2
15 9 16 15 13 8 -4z m-4992 -205 c10 -14 28 -69 39 -123 110 -510 442 -1035
912 -1439 122 -104 128 -111 128 -147 0 -56 -46 -90 -97 -70 -35 13 -174 129
-291 243 l-93 91 5 -145 c3 -80 3 -137 0 -127 -5 14 -9 16 -20 6 -11 -9 -14
-7 -14 10 0 21 -18 27 -76 24 -24 -2 -22 -8 -49 207 -8 63 -15 138 -15 166 0
50 -4 57 -92 175 -131 177 -168 238 -261 426 -106 215 -189 470 -204 620 -8
85 11 115 69 111 30 -2 46 -10 59 -28z m7289 20 c0 -5 -7 -10 -15 -10 -8 0
-15 5 -15 10 0 6 7 10 15 10 8 0 15 -4 15 -10z m-1609 -344 c140 -49 274 -173
369 -341 70 -124 116 -177 188 -212 l56 -28 312 -5 311 -5 49 -30 c89 -56 118
-132 69 -180 -38 -39 -83 -34 -129 15 l-37 40 -269 0 c-162 0 -290 4 -322 11
-147 32 -264 126 -352 283 -95 170 -174 252 -284 290 l-39 14 -33 -92 c-106
-293 -269 -546 -542 -838 -112 -119 -271 -265 -394 -361 -230 -180 -632 -398
-880 -477 l-72 -23 -4 -101 c-5 -117 -27 -184 -86 -261 -81 -107 -184 -157
-322 -157 -90 1 -130 11 -335 87 -87 33 -114 38 -210 42 -132 6 -213 -10 -324
-64 -108 -53 -250 -198 -396 -403 -259 -365 -343 -450 -499 -500 -57 -19 -83
-21 -159 -17 -104 6 -150 17 -198 50 -40 28 -40 45 4 99 23 28 37 38 52 35 11
-3 49 -12 84 -22 55 -14 73 -15 125 -5 120 24 202 89 319 255 137 194 299 407
358 469 64 68 192 160 280 200 86 40 166 57 285 63 139 7 233 -11 406 -78 69
-27 150 -51 180 -55 149 -17 267 89 276 249 4 64 3 69 -14 63 -44 -14 -206
-46 -306 -61 -390 -57 -920 -10 -1301 116 -105 35 -326 141 -362 175 -35 33
-42 70 -18 102 29 38 61 38 140 -1 231 -116 540 -204 833 -238 156 -18 499
-15 655 5 493 63 1018 286 1410 597 209 165 459 425 608 629 114 158 226 375
284 553 45 140 93 163 234 113z m1074 -86 c3 -5 -1 -10 -9 -10 -9 0 -16 5 -16
10 0 6 4 10 9 10 6 0 13 -4 16 -10z m-7820 -15 c74 -20 157 -67 175 -100 20
-37 0 -75 -39 -75 -16 0 -32 4 -35 9 -3 4 -38 19 -78 32 -146 47 -297 25 -405
-60 -58 -46 -79 -54 -103 -41 -27 15 -33 45 -15 79 15 31 93 94 152 125 88 45
240 59 348 31z m7220 6 c3 -6 -5 -15 -17 -21 -21 -10 -21 -10 -6 3 10 8 15 17
11 20 -3 4 -4 7 0 7 3 0 8 -4 12 -9z m60 -1 c-3 -5 -14 -10 -23 -10 -15 0 -15
2 -2 10 20 13 33 13 25 0z m805 -10 c0 -5 -15 -10 -32 -9 -31 1 -32 1 -8 9 35
11 40 11 40 0z m77 -6 c-3 -3 -12 -4 -19 -1 -8 3 -5 6 6 6 11 1 17 -2 13 -5z
m-52 -14 c-3 -5 -18 -9 -33 -9 l-27 1 30 8 c17 4 31 8 33 9 2 0 0 -3 -3 -9z
m-4100 -31 c63 -24 156 -93 207 -155 54 -65 94 -137 241 -429 78 -154 140
-264 162 -287 19 -20 35 -44 35 -52 0 -9 3 -15 8 -14 4 2 17 -6 30 -17 20 -18
21 -20 5 -27 -13 -5 -10 -7 12 -8 17 -1 23 -4 15 -7 -8 -3 -23 -15 -32 -27
-14 -16 -20 -18 -26 -8 -7 10 -11 10 -22 -3 -8 -10 -9 -15 -1 -15 6 0 11 -5
11 -11 0 -5 -10 -3 -22 5 -27 19 -49 21 -44 4 1 -7 1 -10 -1 -5 -3 4 -11 7
-19 7 -9 0 -12 -4 -9 -10 3 -5 1 -10 -4 -10 -6 0 -11 10 -12 23 0 16 -2 18 -7
7 -4 -8 -13 -16 -20 -18 -8 -1 -11 2 -7 8 3 5 -2 10 -13 10 -10 0 -27 9 -37
20 -10 11 -23 20 -30 20 -22 0 -72 85 -205 345 -72 143 -148 279 -167 302 -19
24 -55 55 -81 70 -62 37 -165 39 -229 5 -69 -36 -109 -95 -257 -382 -145 -281
-200 -375 -216 -365 -5 3 -20 -1 -33 -10 -14 -9 -32 -13 -42 -9 -13 5 -16 4
-11 -4 12 -21 -12 -13 -34 10 -17 18 -20 19 -20 5 0 -9 5 -17 10 -17 6 0 10
-4 10 -10 0 -17 -20 -11 -46 15 -25 25 -25 25 -18 3 6 -20 5 -21 -10 -9 -9 7
-16 19 -16 26 0 7 -8 15 -17 19 -10 3 -24 9 -31 12 -7 4 -10 0 -6 -9 4 -10 -2
-14 -21 -14 -25 0 -25 1 17 42 24 24 42 47 40 53 -1 5 9 12 23 16 14 4 25 10
25 15 0 5 12 23 26 40 14 17 22 31 17 31 -4 0 -2 4 5 8 6 5 71 126 142 271
142 286 184 355 265 434 126 125 303 165 460 106z m3215 21 c0 -5 -5 -10 -11
-10 -5 0 -7 5 -4 10 3 6 8 10 11 10 2 0 4 -4 4 -10z m1076 -16 c-4 -9 -9 -15
-11 -12 -3 3 -3 13 1 22 4 9 9 15 11 12 3 -3 3 -13 -1 -22z m-996 4 c0 -5 -13
-8 -29 -8 -17 0 -32 3 -34 8 -3 4 10 7 29 7 19 0 34 -3 34 -7z m825 2 c-3 -5
-12 -10 -18 -10 -7 0 -6 4 3 10 19 12 23 12 15 0z m-225 -26 c0 -2 -9 -4 -21
-4 -11 0 -18 4 -14 10 5 8 35 3 35 -6z m153 9 c-7 -2 -19 -2 -25 0 -7 3 -2 5
12 5 14 0 19 -2 13 -5z m205 -38 c-3 -3 -9 2 -12 12 -6 14 -5 15 5 6 7 -7 10
-15 7 -18z m19 3 c-3 -8 -6 -5 -6 6 -1 11 2 17 5 13 3 -3 4 -12 1 -19z m-7344
-46 c18 -18 27 -39 27 -60 0 -44 -35 -65 -115 -68 -61 -3 -63 -2 -75 26 -40
96 91 177 163 102z m7282 -32 c10 -11 16 -20 13 -20 -3 0 -13 9 -23 20 -10 11
-16 20 -13 20 3 0 13 -9 23 -20z m-15 -20 c6 -11 8 -20 6 -20 -3 0 -10 9 -16
20 -6 11 -8 20 -6 20 3 0 10 -9 16 -20z m-1430 -40 c44 -44 5 -89 -67 -75 -27
5 -33 11 -33 30 0 28 35 65 62 65 10 0 27 -9 38 -20z m-6928 -157 c18 -16 23
-49 10 -69 -25 -37 -112 -13 -112 31 0 46 66 71 102 38z m783 -29 c19 -8 45
-55 45 -82 0 -10 -10 -28 -22 -39 -26 -22 -63 -39 -53 -23 4 6 -6 10 -22 10
-39 0 -53 17 -53 61 0 56 53 93 105 73z m-601 -33 c3 -5 -4 -11 -16 -14 -25
-7 -33 -3 -23 12 8 13 32 14 39 2z m1079 -53 c20 -27 20 -28 2 -48 -13 -15
-26 -19 -42 -15 -14 3 -23 1 -23 -6 0 -8 -6 -7 -17 2 -15 12 -16 12 -10 -3 3
-10 4 -18 0 -18 -12 0 -32 36 -33 58 -1 61 85 82 123 30z m5816 -4 c61 -78
-34 -165 -113 -103 -54 42 -18 129 54 129 30 0 43 -6 59 -26z m-311 -124 c27
-26 28 -64 2 -90 -28 -28 -64 -25 -89 7 -24 30 -20 58 11 86 27 22 49 22 76
-3z m-3778 0 l75 -7 -85 -3 c-47 -2 -97 -3 -112 -2 -16 1 -28 -2 -28 -8 0 -5
7 -10 16 -10 13 0 14 -3 4 -15 -11 -13 -14 -12 -29 6 -16 21 -17 21 -19 -5 -1
-14 3 -28 8 -31 6 -3 10 -12 10 -18 0 -7 -4 -6 -10 3 -5 8 -15 15 -21 15 -7 0
-14 6 -16 13 -3 6 0 12 6 12 6 0 8 7 5 15 -4 8 -10 15 -15 15 -4 0 -6 -7 -2
-16 5 -13 2 -15 -18 -9 -23 7 -23 6 5 -24 17 -18 24 -31 16 -31 -7 0 -19 8
-26 18 -12 15 -15 15 -23 2 -6 -8 -13 -11 -17 -7 -4 4 -2 13 4 19 15 15 15 38
0 38 -6 0 -8 -3 -5 -7 4 -3 -3 -17 -15 -30 l-22 -24 22 -6 c12 -3 22 -9 22
-14 0 -13 -5 -11 -45 11 -19 11 -35 16 -35 12 1 -13 27 -42 32 -36 4 3 9 0 13
-7 6 -9 1 -10 -18 -5 -16 4 -27 2 -30 -7 -2 -7 -8 -8 -13 -3 -5 5 -4 11 4 13
6 3 12 9 12 15 0 6 -7 7 -15 4 -10 -4 -20 3 -27 19 -6 13 -15 22 -20 19 -5 -3
-2 -17 6 -30 9 -13 16 -28 16 -34 0 -19 -17 -10 -29 17 -10 22 -14 24 -22 12
-12 -19 -11 -32 1 -24 6 3 10 -1 10 -9 0 -20 -19 -21 -26 -1 -4 8 -10 12 -15
9 -5 -3 -9 2 -9 11 0 8 7 18 15 21 8 4 15 10 15 15 0 6 -8 5 -19 0 -14 -8 -22
-7 -32 5 -10 12 -14 12 -20 2 -5 -7 -16 -13 -26 -13 -10 -1 -17 -7 -15 -14 1
-7 -2 -10 -7 -7 -5 4 -12 2 -16 -4 -3 -5 -12 -10 -18 -10 -7 0 -3 7 7 15 20
15 20 15 0 30 -10 8 -23 14 -29 14 -5 0 -2 -6 8 -13 12 -9 14 -16 8 -21 -6 -3
-18 0 -26 8 -8 9 -25 13 -37 10 -19 -4 -20 -3 -8 7 12 9 10 11 -12 6 -27 -6
-47 7 -29 19 6 3 8 12 4 20 -3 10 1 15 13 16 34 2 59 -3 65 -13 4 -6 12 -2 18
10 8 15 23 22 54 25 74 6 489 5 567 -3z m2640 1 c78 -13 84 -15 93 -26 4 -6
11 -5 16 5 16 24 22 6 10 -29 -10 -29 -12 -30 -25 -14 -11 14 -13 15 -14 3 0
-8 -11 -20 -24 -26 -18 -9 -26 -8 -35 5 -10 13 -11 11 -6 -11 4 -20 1 -28 -9
-28 -8 0 -17 -6 -20 -12 -3 -10 -9 -8 -19 5 -19 23 -36 21 -47 -5 -5 -13 -9
-17 -9 -10 -1 16 -40 16 -47 -1 -3 -8 -11 -14 -19 -14 -13 0 -13 3 0 17 17 19
20 50 4 50 -5 0 -7 -5 -4 -10 10 -16 -14 -40 -32 -33 -12 5 -15 2 -10 -10 6
-15 3 -16 -14 -7 -11 6 -23 18 -26 26 -3 7 -9 11 -14 8 -14 -8 -50 16 -43 28
4 7 3 8 -4 4 -14 -8 -16 -36 -4 -36 5 0 17 -7 28 -16 18 -14 18 -15 -6 -8 -13
4 -31 13 -39 22 -10 10 -16 11 -19 3 -2 -6 -11 -11 -20 -10 -11 0 -12 2 -4 6
6 2 12 14 12 24 0 11 4 18 9 15 14 -9 22 24 11 42 -9 14 -10 14 -5 -4 4 -15 0
-24 -12 -28 -10 -4 -19 -2 -21 3 -2 6 -8 8 -13 5 -6 -3 -2 -12 8 -19 10 -7 14
-17 10 -21 -4 -5 -11 -3 -15 3 -4 6 -16 12 -27 14 -12 3 -21 14 -23 27 -3 21
-22 32 -22 12 0 -5 -4 -10 -10 -10 -5 0 -10 7 -10 15 0 8 5 15 11 15 5 0 8 4
4 10 -3 5 -12 7 -20 4 -8 -4 -12 -10 -9 -15 3 -5 -1 -9 -9 -9 -8 0 -17 7 -21
15 -4 12 -26 15 -98 17 l-93 2 85 6 c137 10 560 11 620 1z m165 -36 c-14 -16
-28 -25 -32 -22 -3 4 -1 7 6 7 8 0 11 8 8 19 -3 15 1 21 17 23 30 5 30 3 1
-27z m-3565 21 c0 -3 -4 -8 -10 -11 -5 -3 -10 -1 -10 4 0 6 5 11 10 11 6 0 10
-2 10 -4z m3620 0 c0 -3 -4 -8 -10 -11 -5 -3 -10 -1 -10 4 0 6 5 11 10 11 6 0
10 -2 10 -4z m-3593 -33 c-3 -3 -11 -2 -17 2 -9 6 -9 10 1 16 14 8 27 -7 16
-18z m-1240 -27 c77 -21 136 -52 191 -101 72 -65 106 -136 127 -267 6 -38 6
-38 52 -38 96 0 168 -59 198 -164 31 -106 -8 -209 -105 -276 -32 -23 -45 -25
-210 -31 -271 -9 -858 -1 -908 13 -23 7 -55 23 -70 36 l-27 23 27 -16 c44 -27
116 -45 141 -36 18 7 14 9 -20 9 -41 1 -110 28 -99 39 3 3 11 1 18 -4 7 -6 31
-13 53 -16 l40 -6 -37 12 c-49 16 -58 27 -14 17 30 -7 76 -4 76 5 0 1 -5 16
-11 34 -11 31 -12 32 -26 12 -8 -12 -21 -21 -29 -21 -17 0 -19 27 -1 33 6 2 9
8 4 12 -4 5 -13 3 -19 -3 -16 -16 -28 -15 -28 3 0 8 -4 15 -10 15 -5 0 -10 7
-10 15 0 8 -4 15 -10 15 -5 0 -10 -7 -10 -15 0 -8 -5 -15 -11 -15 -7 0 -9 10
-5 25 5 18 2 25 -9 25 -18 0 -20 27 -3 32 6 2 8 10 4 17 -5 7 -14 10 -22 7
-16 -6 -19 10 -4 19 6 4 8 11 5 16 -4 5 -1 9 5 9 7 0 9 -7 6 -15 -3 -9 1 -18
10 -22 22 -8 27 2 13 25 -10 17 -10 23 6 38 17 17 17 17 11 -3 -4 -12 -2 -24
4 -28 5 -3 10 1 10 10 0 12 6 15 20 10 11 -4 45 1 75 10 l55 15 -1 93 c-2 103
9 153 48 223 95 170 311 260 500 210z m413 -20 c0 -18 -30 -30 -43 -17 -5 5
-6 14 -3 20 10 16 46 13 46 -3z m3775 -15 c-6 -5 -25 10 -25 20 0 5 6 4 14 -3
8 -7 12 -15 11 -17z m2185 4 c98 -34 189 -126 231 -235 22 -57 30 -168 16
-222 l-7 -28 62 0 c119 0 183 -63 175 -171 -5 -62 -45 -138 -78 -146 -10 -3
-19 -9 -19 -14 0 -4 -23 -15 -52 -24 -44 -13 -143 -15 -673 -15 -707 0 -694
-1 -762 73 -112 121 -92 299 41 382 53 32 119 39 197 22 35 -8 37 -8 63 37 71
121 193 172 335 141 27 -6 32 -3 51 35 27 54 96 123 150 150 82 42 177 47 270
15z m-4899 -8 c-13 -13 -26 -3 -16 12 3 6 11 8 17 5 6 -4 6 -10 -1 -17z m264
3 c3 -5 1 -10 -4 -10 -6 0 -11 5 -11 10 0 6 2 10 4 10 3 0 8 -4 11 -10z m-295
-36 c0 -8 -4 -12 -10 -9 -5 3 -10 10 -10 16 0 5 5 9 10 9 6 0 10 -7 10 -16z
m280 12 c0 -2 -7 -6 -15 -10 -8 -3 -15 -1 -15 4 0 6 7 10 15 10 8 0 15 -2 15
-4z m50 0 c0 -3 -4 -8 -10 -11 -5 -3 -10 -1 -10 4 0 6 5 11 10 11 6 0 10 -2
10 -4z m2790 -6 c0 -5 -2 -10 -4 -10 -3 0 -8 5 -11 10 -3 6 -1 10 4 10 6 0 11
-4 11 -10z m-3070 -14 c0 -3 -4 -8 -10 -11 -5 -3 -10 -1 -10 4 0 6 5 11 10 11
6 0 10 -2 10 -4z m820 -1 c0 -17 -101 -110 -149 -138 l-56 -32 -180 1 c-106 1
-190 5 -205 12 -19 8 12 11 140 12 230 1 300 20 405 114 42 37 45 39 45 31z
m2204 -16 c-3 -5 -14 -9 -25 -9 -16 0 -18 2 -7 14 14 14 42 10 32 -5z m-1427
-14 c70 -21 144 -89 184 -170 28 -58 31 -71 27 -137 -6 -122 -63 -208 -173
-261 -157 -77 -345 -10 -420 150 -29 61 -31 158 -4 228 28 75 113 164 179 188
58 20 143 21 207 2z m777 -92 c29 -11 91 -17 210 -21 132 -3 165 -7 150 -16
-27 -16 -336 -15 -356 1 -8 7 -17 10 -20 7 -3 -3 -23 11 -44 30 -22 20 -42 36
-45 36 -4 0 -9 7 -13 15 -3 10 8 6 35 -11 23 -14 60 -33 83 -41z m-3391 -1
c23 -25 2 -55 -33 -50 -31 4 -39 37 -14 55 23 17 28 17 47 -5z m4013 -107
c-23 -39 -50 -64 -96 -90 -8 -5 11 19 42 54 32 34 61 74 65 89 5 20 8 22 11 9
2 -10 -8 -37 -22 -62z m2452 39 c50 -35 7 -96 -62 -89 -34 4 -48 22 -40 50 16
52 59 69 102 39z m-5420 -46 c9 -11 11 -18 4 -18 -6 0 -18 13 -27 30 -17 33
-20 56 -3 25 6 -11 18 -28 26 -37z m-3185 -42 c8 -20 -20 -43 -35 -28 -14 14
-3 42 16 42 7 0 16 -6 19 -14z m3857 -16 c0 -5 -4 -10 -10 -10 -5 0 -10 5 -10
10 0 6 5 10 10 10 6 0 10 -4 10 -10z m62 -45 c0 -5 -5 -11 -11 -13 -6 -2 -11
4 -11 13 0 9 5 15 11 13 6 -2 11 -8 11 -13z m1578 5 c0 -5 -4 -10 -10 -10 -5
0 -10 5 -10 10 0 6 5 10 10 10 6 0 10 -4 10 -10z m-1620 -21 c0 -6 -4 -7 -10
-4 -5 3 -10 11 -10 16 0 6 5 7 10 4 6 -3 10 -11 10 -16z m-1523 -161 c-3 -7
-5 -2 -5 12 0 14 2 19 5 13 2 -7 2 -19 0 -25z m6734 9 c-1 -12 -15 -9 -19 4
-3 6 1 10 8 8 6 -3 11 -8 11 -12z m-6604 -84 c-2 -16 -4 -5 -4 22 0 28 2 40 4
28 2 -13 2 -35 0 -50z m-1637 27 c0 -5 -5 -10 -11 -10 -5 0 -7 5 -4 10 3 6 8
10 11 10 2 0 4 -4 4 -10z m70 -56 c0 -15 -6 -24 -15 -24 -18 0 -19 11 -2 29
10 11 9 13 -5 8 -17 -6 -24 3 -12 16 12 12 34 -6 34 -29z m4510 11 c-63 -36
-306 -94 -462 -109 -67 -7 -80 9 -15 19 166 25 248 41 357 70 147 38 153 39
120 20z m-2730 -10 c16 -20 9 -47 -15 -53 -50 -11 -80 -7 -83 11 -9 44 69 77
98 42z m1329 -15 c64 -16 175 -39 245 -50 130 -21 191 -39 132 -40 -87 -1
-389 65 -478 104 -50 22 -28 19 101 -14z m5261 -23 c14 -20 14 -24 -7 -44 -16
-16 -23 -18 -23 -8 0 8 -8 18 -17 24 -17 9 -17 10 0 16 9 4 17 13 17 21 0 20
13 17 30 -9z m-8220 -52 c0 -8 -4 -15 -10 -15 -5 0 -10 7 -10 15 0 8 5 15 10
15 6 0 10 -7 10 -15z m1407 -27 c-3 -7 -5 -2 -5 12 0 14 2 19 5 13 2 -7 2 -19
0 -25z m4167 -71 c19 -26 19 -29 4 -55 -9 -15 -28 -31 -42 -36 -21 -8 -30 -5
-51 14 -29 27 -32 56 -9 88 22 32 70 26 98 -11z m-3643 13 c20 -6 42 -17 49
-25 10 -12 5 -17 -29 -32 -23 -10 -39 -23 -37 -29 3 -7 -3 -10 -13 -7 -16 4
-48 -6 -81 -26 -8 -5 -33 -17 -55 -27 -22 -11 -42 -22 -43 -27 -2 -4 -8 -5
-13 -2 -5 4 -28 7 -50 8 -33 2 -43 -1 -47 -15 -8 -31 -22 -9 -15 24 5 24 3 29
-7 23 -8 -5 0 8 16 29 74 93 211 138 325 106z m-551 -21 c0 8 2 12 5 9 3 -3
-1 -20 -9 -39 l-14 -34 1 38 c1 22 4 32 9 24 6 -9 8 -9 8 2z m3861 -15 c27
-24 42 -76 30 -106 -15 -39 -58 -68 -101 -68 -101 0 -135 126 -48 180 38 24
89 21 119 -6z m565 -49 c24 -36 12 -55 -35 -55 -22 0 -43 5 -46 10 -11 17 6
51 28 60 32 13 35 12 53 -15z m-5626 -70 c18 -21 7 -40 -23 -40 -29 -1 -37 21
-15 43 16 16 23 15 38 -3z m2133 -47 c25 -24 42 -68 25 -68 -5 0 -6 -9 -3 -20
8 -25 -25 -40 -89 -38 -39 0 -46 4 -57 29 -15 37 3 84 40 104 37 20 56 18 84
-7z m3355 -10 c20 -20 14 -48 -13 -58 -34 -13 -55 -3 -55 26 0 35 44 56 68 32z
m-6408 -38 c19 -19 19 -20 -4 -44 l-24 -24 -7 25 c-5 23 1 63 11 63 2 0 13 -9
24 -20z m7335 -19 c-3 -6 -11 -11 -17 -11 -6 0 -6 6 2 15 14 17 26 13 15 -4z
m168 -6 c-7 -21 -13 -19 -13 6 0 11 4 18 10 14 5 -3 7 -12 3 -20z m-128 -5 c3
-5 -1 -10 -10 -10 -9 0 -13 5 -10 10 3 6 8 10 10 10 2 0 7 -4 10 -10z m59 1
c3 -5 -1 -11 -9 -14 -9 -4 -12 -1 -8 9 6 16 10 17 17 5z m-1210 -51 c39 -29
93 -57 123 -66 92 -27 192 -1 270 70 44 39 53 43 53 22 0 -28 -52 -76 -116
-107 -60 -30 -69 -31 -137 -26 -39 4 -73 11 -75 17 -2 5 -10 10 -17 10 -8 0
-36 13 -62 28 -27 16 -54 27 -61 24 -6 -2 -12 1 -12 7 0 6 -10 16 -23 22 -21
9 -36 49 -19 49 4 0 38 -23 76 -50z m1297 -1 c21 0 52 -1 67 -2 15 0 36 2 45
6 12 4 21 -2 32 -23 9 -17 21 -30 28 -30 6 0 -10 -12 -37 -26 -31 -17 -64 -26
-93 -26 -47 0 -103 18 -103 33 0 5 -7 9 -16 9 -9 0 -12 5 -8 12 4 6 3 8 -3 5
-6 -4 -25 1 -43 10 -18 9 -64 18 -101 21 -38 2 -69 6 -69 8 0 15 14 33 22 28
7 -4 6 -9 -1 -14 -7 -3 9 -5 33 -4 25 1 50 5 55 8 5 4 21 2 36 -4 17 -7 24 -7
20 0 -9 14 5 12 35 -5 14 -8 19 -14 11 -15 -8 0 -12 -3 -8 -6 6 -7 39 10 38
19 -1 4 -1 17 0 30 1 20 2 19 11 -5 8 -24 16 -28 49 -29z m-1867 20 c33 -26
33 -44 0 -74 -38 -35 -94 -17 -94 30 0 21 41 65 60 65 4 0 19 -9 34 -21z
m1876 6 c-7 -9 -15 -13 -17 -11 -7 7 7 26 19 26 6 0 6 -6 -2 -15z m41 -8 c-13
-13 -26 -3 -16 12 3 6 11 8 17 5 6 -4 6 -10 -1 -17z m-4828 -28 c70 -24 143
-73 172 -118 20 -30 21 -31 86 -25 37 4 82 4 101 0 47 -9 113 -68 144 -127
l24 -49 97 0 c76 0 100 -4 115 -17 33 -29 22 -59 -44 -126 -73 -72 -124 -117
-114 -100 4 8 -1 11 -13 10 -15 -1 -17 -5 -10 -13 7 -9 4 -16 -13 -26 -18 -10
-150 -13 -653 -13 -346 0 -647 4 -668 8 -59 12 -138 96 -161 170 -55 174 80
357 261 357 55 0 102 -19 157 -65 l43 -35 27 35 c56 73 113 113 201 141 64 20
177 17 248 -7z m757 -49 c37 -37 15 -90 -36 -90 -23 0 -64 31 -64 49 0 18 42
61 61 61 10 0 28 -9 39 -20z m3581 -14 c8 4 5 -5 -6 -21 -17 -26 -19 -42 -16
-115 10 -212 6 -272 -22 -333 -38 -84 -122 -167 -210 -208 -67 -32 -79 -34
-177 -34 -98 0 -110 2 -175 33 -38 18 -78 40 -87 49 -18 16 -24 35 -10 30 10
-3 122 65 122 75 0 4 24 -2 53 -13 99 -40 194 -25 269 41 81 71 101 148 84
316 -14 136 6 189 67 177 18 -3 41 -13 51 -22 18 -15 18 -15 7 6 -9 18 -8 22
7 25 9 2 20 0 23 -5 4 -5 13 -6 20 -1z m-1654 -42 c8 -22 -26 -54 -58 -54 -33
0 -43 13 -35 44 11 44 77 51 93 10z m-1668 2 c17 -20 3 -46 -25 -46 -18 0 -24
5 -24 23 0 38 26 50 49 23z m-2310 -25 c61 -31 89 -89 77 -156 -4 -19 -11 -35
-17 -35 -6 0 -7 6 -4 13 4 6 -7 -4 -24 -23 -23 -26 -31 -30 -31 -17 0 25 -17
21 -24 -5 -5 -19 -8 -20 -15 -8 -5 8 -7 18 -5 22 3 4 0 8 -6 8 -7 0 -10 -7 -6
-15 3 -8 1 -15 -4 -15 -6 0 -10 5 -10 10 0 6 -7 6 -19 -1 -14 -9 -25 -8 -50 4
-31 16 -32 16 -27 -6 4 -13 0 -10 -9 8 -8 17 -14 23 -15 15 -1 -22 -30 48 -30
73 0 44 40 105 83 126 52 26 87 26 136 2z m3331 -1 c0 -24 -26 -38 -42 -22 -8
8 -8 15 2 27 18 21 40 19 40 -5z m-5235 -21 c10 -15 -1 -23 -20 -15 -9 3 -13
10 -10 16 8 13 22 13 30 -1z m6335 -65 c73 -33 150 -111 188 -191 24 -52 27
-69 27 -169 0 -121 -10 -149 -51 -141 -16 3 -21 0 -17 -10 3 -7 -1 -20 -8 -29
-11 -14 -11 -18 4 -28 15 -12 15 -14 -2 -32 -40 -41 -63 -55 -79 -48 -27 11
-42 13 -47 4 -3 -4 7 -11 22 -15 25 -6 26 -8 10 -17 -12 -6 -28 -6 -49 1 -17
6 -34 9 -36 6 -3 -3 1 -6 9 -6 8 -1 1 -5 -16 -10 l-30 -8 33 3 c37 3 43 -9 10
-18 -95 -26 -548 -12 -607 19 -17 8 -30 21 -28 28 1 7 -6 11 -17 9 -14 -3 -17
1 -12 13 3 10 2 14 -5 10 -13 -9 -54 35 -78 83 -58 117 -19 257 91 329 39 25
52 28 137 29 l93 2 29 53 c36 65 53 85 100 115 95 60 220 67 329 18z m1491 -3
c52 -52 31 -126 -41 -146 -19 -5 -21 -4 -10 4 9 7 10 11 3 11 -6 0 -15 -4 -18
-10 -19 -31 -102 12 -106 55 -3 43 2 58 32 86 43 41 99 40 140 0z m-585 -30
c-8 -13 -36 -15 -36 -3 0 4 5 13 12 20 14 14 34 0 24 -17z m-5299 -116 c-14
-14 -30 -25 -34 -25 -4 0 6 13 22 28 17 15 32 27 35 25 2 -2 -8 -15 -23 -28z
m5215 -2 c25 -23 23 -51 -6 -64 -37 -17 -76 -4 -76 25 0 49 47 71 82 39z
m-261 -52 c48 -48 37 -116 -23 -147 -28 -14 -34 -14 -73 0 -72 28 -85 88 -31
142 44 44 86 46 127 5z m-2126 3 c45 -21 64 -67 44 -103 -14 -24 -20 -26 -109
-32 -107 -6 -164 -26 -225 -80 -140 -123 -98 -348 83 -436 51 -25 70 -28 187
-31 115 -3 133 -6 153 -25 46 -43 13 -116 -59 -131 -53 -10 -160 -6 -231 8
-177 38 -314 161 -362 325 -76 257 132 518 412 520 48 1 86 -5 107 -15z
m-3775 -14 c0 -13 -7 -20 -20 -20 -13 0 -20 7 -20 20 0 13 7 20 20 20 13 0 20
-7 20 -20z m4228 -124 c54 -28 151 -142 190 -223 37 -77 37 -79 37 -203 0
-106 -4 -133 -23 -182 -107 -268 -394 -407 -762 -370 -64 6 -148 21 -186 33
-137 42 -289 140 -340 221 -30 47 -30 57 -2 32 12 -10 3 3 -20 30 -23 27 -42
54 -42 60 0 6 5 4 10 -5 5 -9 21 -24 35 -33 25 -17 25 -16 -5 25 -16 23 -30
47 -29 53 0 8 2 7 5 0 3 -7 14 -10 24 -7 16 4 18 9 8 27 -10 19 -8 19 17 -4
l27 -25 -7 24 c-5 18 6 9 40 -29 149 -167 293 -235 525 -247 267 -13 458 73
543 246 28 58 32 75 32 146 -1 105 -31 171 -118 263 -78 82 -90 102 -78 136
18 45 68 58 119 32z m-263 -57 c0 -7 -8 -15 -17 -17 -18 -3 -25 18 -11 32 10
10 28 1 28 -15z m-3555 -59 c0 -13 -7 -20 -20 -20 -19 0 -27 20 -13 33 13 14
33 6 33 -13z m3340 -16 c22 -9 49 -28 59 -43 24 -34 41 -95 33 -123 -5 -21 -6
-21 -13 -2 -6 15 -8 16 -8 2 -1 -9 -10 -20 -22 -23 -16 -5 -18 -10 -8 -21 9
-11 7 -14 -15 -14 -21 0 -26 5 -26 26 0 31 -23 28 -28 -4 -2 -14 2 -22 11 -22
8 0 20 -7 27 -15 11 -13 10 -14 -6 -9 -30 11 -44 25 -44 45 0 19 -16 24 -68
19 -31 -2 -92 40 -92 64 0 36 43 95 84 116 50 24 64 25 116 4z m1768 -69 c-3
-3 -9 2 -12 12 -6 14 -5 15 5 6 7 -7 10 -15 7 -18z m-18 -15 c0 -5 -5 -10 -11
-10 -5 0 -7 5 -4 10 3 6 8 10 11 10 2 0 4 -4 4 -10z m-3102 -53 c48 -44 11
-137 -55 -137 -41 0 -83 43 -83 83 1 77 79 108 138 54z m1677 -32 c14 -13 25
-36 25 -50 0 -30 -41 -75 -68 -75 -35 0 -72 38 -72 75 0 24 7 39 26 54 35 27
59 26 89 -4z m-2024 -268 c-10 -9 -11 -8 -5 6 3 10 9 15 12 12 3 -3 0 -11 -7
-18z m880 -116 c23 -23 29 -39 29 -70 0 -30 -4 -41 -15 -41 -8 0 -15 -5 -15
-12 0 -6 -3 -8 -7 -5 -3 4 -11 0 -17 -7 -14 -18 -56 -31 -56 -17 0 6 9 11 19
11 41 0 28 18 -17 23 -33 4 -50 2 -56 -8 -8 -10 -13 -8 -23 12 -21 41 -16 78
16 112 40 43 100 44 142 2z m-3080 -52 c8 -16 8 -28 0 -46 -9 -19 -17 -24 -43
-21 -40 4 -56 28 -40 62 15 34 66 37 83 5z m8547 -66 c-5 -26 -38 -29 -38 -4
0 15 6 21 21 21 14 0 19 -5 17 -17z m-8058 -19 c0 -16 -16 -19 -25 -4 -8 13 4
32 16 25 5 -4 9 -13 9 -21z m2495 -4 c3 -5 2 -10 -4 -10 -5 0 -13 5 -16 10 -3
6 -2 10 4 10 5 0 13 -4 16 -10z m5255 -591 c0 -25 -33 -22 -38 4 -2 12 3 17
17 17 15 0 21 -6 21 -21z m-4650 -11 c16 -20 16 -24 2 -46 l-15 -23 -23 22
c-22 21 -22 23 -6 45 21 29 20 29 42 2z"/>
<path d="M3784 8998 c-3 -4 2 -8 10 -8 8 0 17 4 20 8 3 5 -2 9 -10 9 -8 0 -17
-4 -20 -9z"/>
<path d="M6758 8740 c-104 -18 -201 -92 -247 -189 -22 -48 -26 -69 -26 -151 0
-80 4 -103 24 -143 31 -63 101 -131 170 -165 48 -23 68 -27 141 -26 105 0 159
22 231 94 74 74 104 145 104 245 -1 91 -22 150 -80 221 -72 87 -199 133 -317
114z m112 -180 c41 -11 94 -61 109 -103 56 -147 -99 -288 -239 -217 -129 66
-127 252 4 311 47 21 76 23 126 9z"/>
<path d="M3195 8150 c4 -6 11 -8 16 -5 14 9 11 15 -7 15 -8 0 -12 -5 -9 -10z"/>
<path d="M3305 8060 c-3 -5 -1 -10 4 -10 6 0 11 5 11 10 0 6 -2 10 -4 10 -3 0
-8 -4 -11 -10z"/>
<path d="M4004 8168 c0 -10 4 -18 8 -18 4 0 8 -7 8 -16 0 -8 -4 -12 -10 -9 -5
3 -10 1 -10 -5 0 -7 6 -10 13 -8 16 6 20 75 4 75 -7 0 -13 -9 -13 -19z"/>
<path d="M3880 8170 c-8 -5 -10 -10 -5 -10 6 0 17 5 25 10 8 5 11 10 5 10 -5
0 -17 -5 -25 -10z"/>
<path d="M3720 8090 c0 -5 4 -10 9 -10 6 0 13 5 16 10 3 6 -1 10 -9 10 -9 0
-16 -4 -16 -10z"/>
<path d="M1948 7983 c7 -3 16 -2 19 1 4 3 -2 6 -13 5 -11 0 -14 -3 -6 -6z"/>
<path d="M8980 7070 c0 -5 5 -10 11 -10 5 0 7 5 4 10 -3 6 -8 10 -11 10 -2 0
-4 -4 -4 -10z"/>
<path d="M7389 7700 c-67 -35 -92 -106 -64 -178 45 -111 177 -134 255 -45 112
127 -39 303 -191 223z"/>
<path d="M1310 6907 c0 -14 39 -41 47 -33 3 3 -2 8 -11 12 -9 3 -16 12 -16 20
0 8 -4 14 -10 14 -5 0 -10 -6 -10 -13z"/>
<path d="M1736 6901 c-3 -5 1 -11 9 -14 9 -4 12 -1 8 9 -6 16 -10 17 -17 5z"/>
<path d="M1321 6849 c-1 -17 4 -26 14 -26 8 0 15 4 15 9 0 4 -4 8 -9 8 -5 0
-12 8 -14 18 -3 11 -5 8 -6 -9z"/>
<path d="M2245 6790 c-7 -12 2 -12 30 0 19 8 19 9 -2 9 -12 1 -25 -3 -28 -9z"/>
<path d="M5050 7510 l-45 -7 40 0 c22 0 54 3 70 7 26 7 27 8 5 7 -14 0 -45 -3
-70 -7z"/>
<path d="M5283 7503 c15 -2 39 -2 55 0 15 2 2 4 -28 4 -30 0 -43 -2 -27 -4z"/>
<path d="M7057 5739 c6 -23 9 -24 16 -5 3 8 0 17 -7 19 -10 4 -12 -1 -9 -14z"/>
<path d="M3142 5134 c10 -10 20 -16 22 -13 3 3 -5 11 -17 18 -21 13 -21 12 -5
-5z"/>
<path d="M3175 5140 c4 -6 13 -10 21 -10 8 0 12 -4 9 -10 -3 -6 1 -7 9 -4 22
8 20 11 -14 23 -18 6 -28 6 -25 1z"/>
<path d="M3014 5116 c23 -18 46 -21 46 -5 0 6 -6 9 -12 6 -7 -2 -22 0 -33 5
-20 9 -20 9 -1 -6z"/>
<path d="M7140 5025 c7 -9 15 -13 17 -11 7 7 -7 26 -19 26 -6 0 -6 -6 2 -15z"/>
<path d="M5115 7026 c-37 -16 -88 -72 -116 -129 -12 -23 -89 -166 -172 -317
-83 -151 -192 -351 -242 -445 -51 -93 -148 -271 -215 -395 -67 -124 -147 -274
-177 -335 -96 -193 -140 -236 -298 -295 -82 -31 -159 -83 -197 -132 -14 -18
-118 -187 -231 -376 -218 -364 -236 -404 -223 -494 9 -62 62 -147 112 -180 79
-53 124 -58 520 -58 329 0 368 2 440 20 148 38 238 114 339 285 32 55 76 124
98 153 43 57 130 127 199 160 100 49 238 64 359 42 157 -29 306 -152 418 -345
80 -136 152 -210 253 -259 107 -52 164 -58 584 -54 361 3 370 4 419 26 105 48
165 139 165 249 0 86 -20 131 -140 323 -57 91 -146 237 -198 325 -138 232
-179 269 -375 340 -26 9 -71 39 -101 66 -46 42 -69 79 -166 266 -109 211 -421
785 -620 1143 -53 96 -118 213 -143 260 -53 100 -84 135 -132 156 -42 17 -120
18 -160 0z m147 -371 c30 -55 83 -151 118 -214 94 -170 116 -259 89 -365 -16
-65 -75 -136 -142 -170 -47 -24 -70 -29 -130 -30 -158 -1 -270 102 -284 264
-8 80 21 167 103 315 150 272 177 316 184 308 4 -4 32 -53 62 -108z m-482
-735 c0 -6 -11 -16 -25 -22 -14 -6 -25 -15 -25 -20 0 -4 -3 -7 -7 -7 -22 4
-33 -4 -57 -41 -33 -49 -33 -65 -1 -25 13 16 28 26 32 22 4 -5 3 -11 -3 -15
-6 -4 -14 -16 -18 -26 -7 -19 -6 -19 14 -1 17 15 20 16 20 2 0 -8 -3 -17 -7
-20 -5 -2 -2 -2 5 -1 6 2 12 -3 12 -11 0 -8 4 -15 10 -15 5 0 7 7 4 15 -4 8
-1 15 4 15 14 0 8 -25 -18 -79 -26 -52 -90 -225 -96 -260 -3 -13 -9 -32 -14
-42 -31 -56 1 -38 93 52 110 110 227 209 246 209 6 0 -12 -21 -41 -47 -76 -67
-123 -117 -120 -126 1 -5 -3 -5 -9 -2 -15 10 -88 -63 -84 -84 2 -9 4 -18 4
-21 1 -3 5 1 10 8 7 11 9 11 14 -1 4 -10 -1 -14 -16 -13 -14 1 -21 -4 -19 -13
1 -7 -3 -19 -9 -27 -6 -8 -7 -14 -2 -14 13 0 76 48 86 65 4 8 14 15 22 15 7 0
16 5 18 10 3 6 5 6 4 1 -3 -16 -127 -111 -144 -111 -9 0 -14 -3 -10 -6 3 -4
-11 -18 -31 -32 -20 -14 -55 -38 -77 -53 -92 -63 -128 -70 -337 -67 l-190 3
40 30 c21 16 59 57 83 91 44 61 44 61 99 65 30 2 83 3 117 4 l62 0 25 60 c14
33 54 132 91 220 86 210 115 259 172 296 48 30 73 36 73 19z m935 -44 c41 -42
74 -111 203 -431 l48 -120 118 0 c98 0 120 -3 129 -17 72 -101 95 -128 131
-152 l41 -27 -205 4 c-233 4 -231 3 -365 93 -94 62 -115 78 -115 89 0 4 7 2
15 -5 11 -9 17 -9 28 2 7 7 12 19 9 27 -3 10 0 12 13 8 30 -12 35 3 15 41 -11
20 -20 42 -20 48 0 21 -72 239 -86 262 -11 17 -12 28 -4 45 10 20 10 20 -3 4
-13 -15 -16 -15 -27 -2 -10 12 -10 15 3 15 8 0 20 12 25 28 6 15 11 21 11 13
1 -11 6 -10 21 4 24 21 26 37 5 29 -8 -4 -15 -1 -15 6 0 7 -8 9 -21 5 -15 -5
-19 -4 -14 5 4 6 18 10 31 7 13 -2 21 0 18 4 -3 5 -10 9 -16 9 -13 0 -68 39
-68 49 0 20 58 -6 95 -43z m-995 -20 c0 -2 -7 -7 -16 -10 -8 -3 -12 -2 -9 4 6
10 25 14 25 6z m24 -15 c3 -5 0 -14 -8 -20 -10 -9 -15 -8 -20 4 -3 9 -2 13 4
10 6 -3 10 -1 10 4 0 13 7 14 14 2z m26 -31 c0 -5 -4 -10 -10 -10 -5 0 -10 5
-10 10 0 6 5 10 10 10 6 0 10 -4 10 -10z m-35 -20 c3 -5 1 -10 -4 -10 -6 0
-11 5 -11 10 0 6 2 10 4 10 3 0 8 -4 11 -10z m48 -18 c-20 -21 -28 -20 -20 3
4 8 13 15 22 15 13 0 12 -3 -2 -18z m721 -164 c100 -83 225 -200 242 -226 17
-27 16 -27 -17 3 -19 16 -38 34 -44 40 -5 5 -28 25 -50 44 -57 48 -195 181
-187 181 3 0 29 -19 56 -42z m-664 -192 c-7 -7 -14 -6 -21 1 -9 9 -7 12 9 10
14 -1 18 -5 12 -11z m-90 -16 c0 -5 -5 -10 -11 -10 -5 0 -7 5 -4 10 3 6 8 10
11 10 2 0 4 -4 4 -10z m571 -20 c35 -11 96 -41 136 -67 81 -55 392 -287 500
-375 70 -57 73 -58 112 -49 144 32 281 -119 242 -265 -42 -157 -229 -216 -343
-109 -34 33 -67 97 -68 134 0 27 14 15 -284 240 -280 210 -310 226 -426 226
-71 0 -93 -4 -135 -25 -28 -14 -165 -114 -306 -223 -252 -194 -256 -198 -262
-239 -24 -176 -268 -228 -372 -80 -27 39 -30 51 -30 121 0 69 3 83 30 127 18
28 48 59 70 72 34 20 50 22 114 19 l74 -4 141 110 c77 61 175 137 216 170 222
174 272 206 360 227 65 15 165 11 231 -10z m-26 -587 c7 -4 -37 -8 -100 -8
-62 0 -112 2 -110 4 20 19 176 22 210 4z m1265 -55 c0 -10 2 -10 8 0 8 12 16
-7 37 -85 9 -32 -16 -153 -26 -127 -4 10 -8 13 -8 7 -1 -7 -8 -13 -17 -13 -10
0 -12 5 -7 13 13 21 13 39 0 28 -7 -5 -27 -8 -45 -7 -23 2 -32 -2 -33 -13 -1
-13 -2 -12 -6 2 -2 9 -8 17 -11 17 -4 0 -6 40 -4 89 3 88 4 89 27 85 13 -2 27
0 30 6 9 14 55 12 55 -2z m-2690 -15 c25 -1 50 -3 56 -4 6 -1 14 -30 17 -63 3
-34 9 -77 12 -96 5 -29 4 -32 -5 -17 -11 18 -13 18 -31 1 -11 -10 -19 -12 -19
-6 0 7 5 12 10 12 6 0 10 4 10 10 0 5 -7 6 -17 3 -10 -4 -14 -2 -10 4 3 5 0
10 -7 10 -8 0 -11 -8 -8 -19 2 -10 -1 -18 -7 -18 -7 0 -9 6 -6 13 4 6 -1 3 -9
-7 -21 -26 -20 -42 2 -25 15 13 16 12 3 -3 -7 -10 -17 -18 -22 -18 -5 0 -9 8
-10 18 0 15 -1 14 -8 -2 -7 -18 -9 -16 -19 14 -16 46 -15 142 2 165 8 11 12
26 9 35 -3 9 -1 11 4 5 4 -5 28 -11 53 -12z m2580 -218 c0 -5 -5 -3 -10 5 -5
8 -10 20 -10 25 0 6 5 3 10 -5 5 -8 10 -19 10 -25z m-2510 15 c0 -5 -8 -10
-17 -10 -15 0 -16 2 -3 10 19 12 20 12 20 0z m-224 -146 c46 -22 102 -86 109
-127 7 -37 -19 -97 -45 -105 -13 -3 -13 -2 0 8 12 10 12 11 -5 5 -11 -5 -33
-10 -50 -12 -16 -3 -36 -12 -42 -21 -11 -14 -13 -14 -13 -1 0 10 -8 15 -22 14
-12 -1 -33 4 -46 11 -14 7 -31 10 -40 7 -10 -5 -13 -2 -8 6 5 8 3 12 -5 10
-28 -3 -39 1 -39 17 0 13 -3 14 -14 5 -25 -21 -30 51 -7 96 46 90 142 127 227
87z m3102 2 c30 -16 74 -60 90 -92 8 -15 7 -31 -2 -59 -8 -23 -16 -32 -19 -24
-3 8 -6 4 -6 -9 -1 -13 -5 -20 -11 -17 -5 3 -10 1 -10 -5 0 -7 -8 -9 -20 -5
-15 5 -18 3 -14 -9 3 -9 1 -16 -5 -16 -6 0 -11 6 -11 13 0 9 -3 8 -9 -2 -5 -7
-14 -10 -20 -7 -6 4 -11 2 -11 -3 0 -7 -15 -9 -37 -6 -20 2 -40 0 -44 -6 -4
-7 -18 -3 -40 10 -40 25 -50 26 -43 6 11 -28 -4 -15 -26 22 -38 64 -8 144 74
197 46 30 119 35 164 12z m38 -241 c-8 -8 -18 -15 -22 -15 -3 0 -1 7 6 15 7 8
17 15 22 15 5 0 3 -7 -6 -15z m-3246 -7 c0 -4 -4 -8 -9 -8 -6 0 -12 4 -15 8
-3 5 1 9 9 9 8 0 15 -4 15 -9z m2691 -8 c66 0 109 -4 109 -10 0 -6 -36 -10
-87 -10 -102 0 -163 9 -163 22 0 6 7 7 16 4 9 -3 65 -6 125 -6z m-2116 -10
c-46 -12 -205 -12 -205 0 0 6 45 10 118 9 75 -1 106 -4 87 -9z"/>
<path d="M4612 5730 c-7 -11 -8 -20 -3 -20 9 0 24 30 18 36 -1 2 -8 -6 -15
-16z"/>
<path d="M4667 5389 c-9 -6 -15 -14 -12 -19 8 -13 32 -2 32 15 0 8 -1 15 -1
15 -1 0 -9 -5 -19 -11z"/>
<path d="M4658 5343 c7 -3 16 -2 19 1 4 3 -2 6 -13 5 -11 0 -14 -3 -6 -6z"/>
<path d="M6520 4580 c0 -5 5 -10 11 -10 5 0 7 5 4 10 -3 6 -8 10 -11 10 -2 0
-4 -4 -4 -10z"/>
<path d="M3867 4607 c-3 -8 1 -14 9 -14 16 0 19 13 5 21 -5 3 -11 0 -14 -7z"/>
<path d="M7873 7099 c-162 -62 -240 -241 -171 -389 92 -197 336 -245 502 -99
89 77 113 218 57 335 -68 143 -238 211 -388 153z m170 -123 c72 -30 118 -120
98 -193 -22 -79 -78 -123 -161 -123 -97 0 -180 94 -163 183 21 114 126 175
226 133z"/>
<path d="M3708 6753 c7 -3 16 -2 19 1 4 3 -2 6 -13 5 -11 0 -14 -3 -6 -6z"/>
<path d="M6688 6743 c6 -2 18 -2 25 0 6 3 1 5 -13 5 -14 0 -19 -2 -12 -5z"/>
<path d="M1960 5855 c0 -8 5 -15 10 -15 6 0 10 7 10 15 0 8 -4 15 -10 15 -5 0
-10 -7 -10 -15z"/>
<path d="M1935 5840 c3 -5 8 -10 11 -10 2 0 4 5 4 10 0 6 -5 10 -11 10 -5 0
-7 -4 -4 -10z"/>
<path d="M1961 5804 c0 -11 3 -14 6 -6 3 7 2 16 -1 19 -3 4 -6 -2 -5 -13z"/>
<path d="M9501 4123 c-1 -7 -8 -13 -16 -13 -9 0 -12 -6 -8 -16 5 -14 7 -14 21
-1 8 8 12 21 9 29 -4 9 -6 10 -6 1z"/>
<path d="M9555 4120 c-3 -5 1 -10 9 -10 9 0 16 5 16 10 0 6 -4 10 -9 10 -6 0
-13 -4 -16 -10z"/>
<path d="M9435 4110 c3 -5 8 -10 11 -10 2 0 4 5 4 10 0 6 -5 10 -11 10 -5 0
-7 -4 -4 -10z"/>
<path d="M9438 4083 c7 -3 16 -2 19 1 4 3 -2 6 -13 5 -11 0 -14 -3 -6 -6z"/>
<path d="M8910 4059 c0 -5 5 -7 10 -4 6 3 10 8 10 11 0 2 -4 4 -10 4 -5 0 -10
-5 -10 -11z"/>
<path d="M8605 4050 c3 -5 8 -10 11 -10 2 0 4 5 4 10 0 6 -5 10 -11 10 -5 0
-7 -4 -4 -10z"/>
<path d="M8670 4049 c0 -5 5 -7 10 -4 6 3 10 8 10 11 0 2 -4 4 -10 4 -5 0 -10
-5 -10 -11z"/>
<path d="M8855 4050 c3 -5 11 -10 16 -10 6 0 7 5 4 10 -3 6 -11 10 -16 10 -6
0 -7 -4 -4 -10z"/>
<path d="M8710 4040 c0 -5 5 -10 11 -10 5 0 7 5 4 10 -3 6 -8 10 -11 10 -2 0
-4 -4 -4 -10z"/>
<path d="M9222 4039 c2 -6 8 -10 13 -10 5 0 11 4 13 10 2 6 -4 11 -13 11 -9 0
-15 -5 -13 -11z"/>
<path d="M8700 3945 c0 -12 12 -15 53 -13 50 1 50 2 10 5 -24 2 -43 8 -43 14
0 5 -4 9 -10 9 -5 0 -10 -7 -10 -15z"/>
<path d="M4465 2950 c3 -5 8 -10 11 -10 2 0 4 5 4 10 0 6 -5 10 -11 10 -5 0
-7 -4 -4 -10z"/>
<path d="M4430 2940 c0 -5 5 -10 11 -10 5 0 7 5 4 10 -3 6 -8 10 -11 10 -2 0
-4 -4 -4 -10z"/>
<path d="M4500 2930 c0 -5 5 -10 10 -10 6 0 10 5 10 10 0 6 -4 10 -10 10 -5 0
-10 -4 -10 -10z"/>
<path d="M3660 3341 c0 -5 7 -12 16 -15 14 -5 15 -4 4 9 -14 17 -20 19 -20 6z"/>
<path d="M3625 3301 c-3 -5 -1 -12 5 -16 5 -3 10 1 10 9 0 18 -6 21 -15 7z"/>
<path d="M3715 3300 c-3 -5 -1 -10 4 -10 6 0 11 5 11 10 0 6 -2 10 -4 10 -3 0
-8 -4 -11 -10z"/>
<path d="M3840 3300 c0 -5 7 -7 15 -4 8 4 15 8 15 10 0 2 -7 4 -15 4 -8 0 -15
-4 -15 -10z"/>
<path d="M3785 3290 c3 -5 8 -10 11 -10 2 0 4 5 4 10 0 6 -5 10 -11 10 -5 0
-7 -4 -4 -10z"/>
<path d="M6402 3315 c-14 -31 -15 -35 -3 -35 9 0 25 49 18 56 -2 2 -9 -7 -15
-21z"/>
<path d="M6645 3309 c-4 -6 -5 -12 -2 -15 2 -3 7 2 10 11 7 17 1 20 -8 4z"/>
<path d="M6703 3283 c-7 -3 -13 -9 -13 -14 0 -6 5 -7 11 -3 6 3 15 0 20 -7 5
-8 9 -9 9 -4 0 18 -15 32 -27 28z"/>
<path d="M6750 3280 c8 -5 20 -10 25 -10 6 0 3 5 -5 10 -8 5 -19 10 -25 10 -5
0 -3 -5 5 -10z"/>
<path d="M6555 3270 c-3 -6 1 -7 9 -4 18 7 21 14 7 14 -6 0 -13 -4 -16 -10z"/>
<path d="M6793 3263 c-15 -5 -17 -23 -4 -23 5 0 11 7 15 15 3 8 4 15 3 14 -1
0 -8 -3 -14 -6z"/>
<path d="M6580 3250 c0 -5 5 -10 10 -10 6 0 10 5 10 10 0 6 -4 10 -10 10 -5 0
-10 -4 -10 -10z"/>
<path d="M6620 3249 c0 -5 5 -7 10 -4 6 3 10 8 10 11 0 2 -4 4 -10 4 -5 0 -10
-5 -10 -11z"/>
<path d="M1535 2690 c-3 -5 -1 -10 4 -10 6 0 11 5 11 10 0 6 -2 10 -4 10 -3 0
-8 -4 -11 -10z"/>
<path d="M1480 2644 c0 -8 5 -12 10 -9 6 4 8 11 5 16 -9 14 -15 11 -15 -7z"/>
<path d="M1520 2633 c0 -7 -5 -13 -11 -13 -6 0 -9 -5 -7 -11 2 -6 7 -10 12 -9
5 1 12 -2 15 -7 3 -5 17 -3 31 5 l25 14 -27 -6 c-37 -8 -44 10 -11 28 l28 14
-27 -1 c-16 -1 -28 -8 -28 -14z"/>
<path d="M1778 2473 c12 -2 32 -2 45 0 12 2 2 4 -23 4 -25 0 -35 -2 -22 -4z"/>
<path d="M1703 2453 c26 -2 68 -2 95 0 26 2 4 3 -48 3 -52 0 -74 -1 -47 -3z"/>
<path d="M1778 2433 c12 -2 32 -2 45 0 12 2 2 4 -23 4 -25 0 -35 -2 -22 -4z"/>
<path d="M5110 3011 c-132 -69 -91 -274 58 -289 107 -10 206 86 188 183 -8 40
-47 90 -87 110 -39 21 -117 19 -159 -4z m112 -108 c24 -21 23 -45 -2 -68 -44
-40 -97 27 -54 69 20 20 33 20 56 -1z"/>
<path d="M5327 2750 c-3 -11 -3 -20 -1 -20 2 0 8 9 14 20 6 11 7 20 2 20 -6 0
-12 -9 -15 -20z"/>
<path d="M5040 2746 c0 -2 7 -7 16 -10 8 -3 12 -2 9 4 -6 10 -25 14 -25 6z"/>
<path d="M5086 2705 c4 -8 18 -15 33 -16 15 0 20 -3 11 -6 -8 -3 -26 -10 -40
-15 -20 -7 -22 -11 -10 -18 8 -6 11 -10 5 -10 -5 0 -3 -5 5 -10 11 -8 7 -9
-15 -5 l-30 6 25 -15 c14 -8 32 -13 42 -10 9 3 19 0 23 -6 3 -5 27 -10 53 -10
36 0 44 3 32 11 -12 9 -11 10 6 6 12 -2 28 -1 35 4 11 7 10 9 -4 9 -10 0 -16
4 -13 9 3 5 16 7 29 4 l22 -6 -21 21 c-12 11 -32 22 -45 25 -23 4 -23 4 2 6
15 0 32 8 39 16 11 14 10 14 -14 5 -39 -15 -106 -12 -140 5 -35 19 -37 19 -30
0z m71 -41 c-3 -3 -12 -4 -19 -1 -8 3 -5 6 6 6 11 1 17 -2 13 -5z m60 -10 c-3
-3 -12 -4 -19 -1 -8 3 -5 6 6 6 11 1 17 -2 13 -5z"/>
<path d="M5290 2620 c-13 -8 -13 -10 2 -10 9 0 20 5 23 10 8 13 -5 13 -25 0z"/>
<path d="M3910 2110 c0 -5 5 -10 10 -10 6 0 10 5 10 10 0 6 -4 10 -10 10 -5 0
-10 -4 -10 -10z"/>
<path d="M7040 2090 c0 -5 5 -10 11 -10 5 0 7 5 4 10 -3 6 -8 10 -11 10 -2 0
-4 -4 -4 -10z"/>
<path d="M8238 2063 c7 -3 16 -2 19 1 4 3 -2 6 -13 5 -11 0 -14 -3 -6 -6z"/>
<path d="M4087 1509 c-9 -6 -15 -14 -12 -20 8 -12 52 -12 60 1 4 6 -7 8 -27 5
l-33 -5 30 14 c17 9 23 15 15 15 -8 0 -23 -4 -33 -10z"/>
<path d="M3298 1483 c12 -2 32 -2 45 0 12 2 2 4 -23 4 -25 0 -35 -2 -22 -4z"/>
<path d="M7905 1990 c3 -5 8 -10 11 -10 2 0 4 5 4 10 0 6 -5 10 -11 10 -5 0
-7 -4 -4 -10z"/>
<path d="M6844 1249 c-19 -22 -19 -22 3 -10 24 12 39 31 25 31 -5 0 -17 -10
-28 -21z"/>
<path d="M6578 1173 c12 -2 32 -2 45 0 12 2 2 4 -23 4 -25 0 -35 -2 -22 -4z"/>
<path d="M6138 1163 c7 -3 16 -2 19 1 4 3 -2 6 -13 5 -11 0 -14 -3 -6 -6z"/>
<path d="M6578 1153 c12 -2 32 -2 45 0 12 2 2 4 -23 4 -25 0 -35 -2 -22 -4z"/>
<path d="M5196 1242 c-2 -4 -1 -14 5 -22 7 -12 9 -10 9 8 0 23 -5 28 -14 14z"/>
</g>
</svg>
